<?xml version="1.0" encoding="utf-8"?>
<!-- Generator: Adobe Illustrator 16.0.0, SVG Export Plug-In . SVG Version: 6.00 Build 0)  -->
<!DOCTYPE svg PUBLIC "-//W3C//DTD SVG 1.1//EN" "http://www.w3.org/Graphics/SVG/1.1/DTD/svg11.dtd">
<svg version="1.1" id="Layer_1" xmlns="http://www.w3.org/2000/svg" xmlns:xlink="http://www.w3.org/1999/xlink" x="0px" y="0px"
	 width="30px" height="30px" viewBox="0 0 400 400" enable-background="new 0 0 400 400" xml:space="preserve">
<g>
	<path fill="#FFFFFF" d="M342.012,57.992c-7.733-7.736-17.002-11.603-27.801-11.603H85.794c-10.801,0-20.067,3.868-27.803,11.603
		c-7.735,7.733-11.601,17-11.601,27.799v228.414c0,10.799,3.866,20.068,11.601,27.801c7.736,7.734,17.004,11.604,27.803,11.604
		h228.414c10.796,0,20.067-3.869,27.801-11.604c7.737-7.732,11.601-17.002,11.601-27.801V85.791
		C353.607,74.99,349.746,65.728,342.012,57.992z M156.701,157.095c12.066-11.666,26.568-17.501,43.502-17.501
		c17.064,0,31.632,5.835,43.701,17.501c12.07,11.668,18.102,25.771,18.102,42.304c0,16.53-6.031,30.636-18.102,42.298
		c-12.069,11.672-26.631,17.506-43.701,17.506c-16.934,0-31.434-5.84-43.502-17.506c-12.069-11.664-18.103-25.768-18.103-42.298
		C138.598,182.866,144.631,168.764,156.701,157.095z M318.813,306.008c0,3.465-1.204,6.365-3.603,8.699
		c-2.404,2.332-5.267,3.5-8.604,3.5H92.795c-3.466,0-6.369-1.168-8.7-3.5c-2.335-2.33-3.501-5.234-3.501-8.699V176.396h28.201
		c-2.666,8.401-3.999,17.137-3.999,26.202c0,25.607,9.333,47.439,28,65.512c18.67,18.063,41.138,27.1,67.406,27.1
		c17.334,0,33.334-4.135,48.006-12.402c14.668-8.271,26.262-19.502,34.801-33.705c8.535-14.201,12.803-29.703,12.803-46.502
		c0-9.066-1.338-17.799-4.003-26.203h27.004V306.01h-0.001V306.008z M318.813,127.393c0,3.867-1.334,7.134-4.005,9.801
		c-2.666,2.668-5.932,4.001-9.8,4.001h-34.801c-3.865,0-7.136-1.333-9.801-4.001c-2.667-2.667-4-5.934-4-9.801v-33
		c0-3.734,1.333-6.967,4-9.701c2.665-2.733,5.936-4.101,9.801-4.101h34.801c3.868,0,7.134,1.368,9.8,4.101
		c2.671,2.734,4.005,5.967,4.005,9.701V127.393z"/>
</g>
</svg>
