<?xml version="1.0" encoding="utf-8"?>
<!-- Generator: Adobe Illustrator 16.0.0, SVG Export Plug-In . SVG Version: 6.00 Build 0)  -->
<!DOCTYPE svg PUBLIC "-//W3C//DTD SVG 1.1//EN" "http://www.w3.org/Graphics/SVG/1.1/DTD/svg11.dtd">
<svg version="1.1" id="Layer_1" xmlns="http://www.w3.org/2000/svg" xmlns:xlink="http://www.w3.org/1999/xlink" x="0px" y="0px"
	 width="250px" height="90px" viewBox="0 0 349 120" enable-background="new 0 0 349 120" xml:space="preserve">
<g>
	<linearGradient id="SVGID_1_" gradientUnits="userSpaceOnUse" x1="118.9541" y1="42.6978" x2="118.6875" y2="76.2932">
		<stop  offset="0" style="stop-color:#E5E2DF"/>
		<stop  offset="0" style="stop-color:#DED9D6"/>
		<stop  offset="0.0616" style="stop-color:#CECAC9"/>
		<stop  offset="0.1794" style="stop-color:#A8A4A7"/>
		<stop  offset="0.264" style="stop-color:#8B878D"/>
		<stop  offset="0.5225" style="stop-color:#F3F4F4"/>
		<stop  offset="0.5875" style="stop-color:#E0DFE0"/>
		<stop  offset="0.7124" style="stop-color:#B7B4B8"/>
		<stop  offset="0.8764" style="stop-color:#807B80"/>
		<stop  offset="1" style="stop-color:#D1D3D4"/>
		<stop  offset="1" style="stop-color:#A7A9AC"/>
	</linearGradient>
	<path fill="url(#SVGID_1_)" d="M137.332,74.407c-7.807,3.453-14.448-0.504-16.775-6.222c-1.809,0.555-3.893,0.891-6.128,0.891
		c-8.415,0-14.216-4.896-14.216-12.205c0-7.375,5.868-12.204,14.623-12.204c3.688,0,8.001,0.695,9.971,1.527l-0.33,6.412h-0.279
		c-1.153-4.417-4.77-6.261-8.662-6.261c-4.768,0-7.946,4.292-7.946,10.729c0,6.195,3.044,10.325,7.61,10.325
		c2.689,0,4.477-1.43,4.47-3.576v-4.571c0.008-0.979-0.624-1.527-1.707-1.525h-0.528v-0.336h11.26v0.336h-0.505
		c-1.084,0-1.694,0.547-1.674,1.521v5.422c0.027,5.178,4.229,10.911,10.749,9.402L137.332,74.407z"/>
	<linearGradient id="SVGID_2_" gradientUnits="userSpaceOnUse" x1="138.9238" y1="42.8555" x2="138.6572" y2="76.4511">
		<stop  offset="0" style="stop-color:#E5E2DF"/>
		<stop  offset="0" style="stop-color:#DED9D6"/>
		<stop  offset="0.0616" style="stop-color:#CECAC9"/>
		<stop  offset="0.1794" style="stop-color:#A8A4A7"/>
		<stop  offset="0.264" style="stop-color:#8B878D"/>
		<stop  offset="0.5225" style="stop-color:#F3F4F4"/>
		<stop  offset="0.5875" style="stop-color:#E0DFE0"/>
		<stop  offset="0.7124" style="stop-color:#B7B4B8"/>
		<stop  offset="0.8764" style="stop-color:#807B80"/>
		<stop  offset="1" style="stop-color:#D1D3D4"/>
		<stop  offset="1" style="stop-color:#A7A9AC"/>
	</linearGradient>
	<path fill="url(#SVGID_2_)" d="M125.091,43.16c8.194-0.69,14.444,3.313,16.872,10c1.695-5.01,6.073-10.354,10.787-10v0.335
		c-4.351,0.193-9.027,9.438-9.697,14.324v8.346c0.013,1.102,0.918,2.106,2.158,2.106h0.413l0.005,0.336h-12.028l0.005-0.336h0.439
		c1.138,0,2.109-0.937,2.133-2.102v-8.368c-1.006-4.881-4.825-13.784-11.089-14.307L125.091,43.16z"/>
	<linearGradient id="SVGID_3_" gradientUnits="userSpaceOnUse" x1="163.6357" y1="43.0522" x2="163.3691" y2="76.6473">
		<stop  offset="0" style="stop-color:#E5E2DF"/>
		<stop  offset="0" style="stop-color:#DED9D6"/>
		<stop  offset="0.0616" style="stop-color:#CECAC9"/>
		<stop  offset="0.1794" style="stop-color:#A8A4A7"/>
		<stop  offset="0.264" style="stop-color:#8B878D"/>
		<stop  offset="0.5225" style="stop-color:#F3F4F4"/>
		<stop  offset="0.5875" style="stop-color:#E0DFE0"/>
		<stop  offset="0.7124" style="stop-color:#B7B4B8"/>
		<stop  offset="0.8764" style="stop-color:#807B80"/>
		<stop  offset="1" style="stop-color:#D1D3D4"/>
		<stop  offset="1" style="stop-color:#A7A9AC"/>
	</linearGradient>
	<path fill="url(#SVGID_3_)" d="M180.477,74.34c-6.227,3.622-14.765,0.805-18.794-9.071l-0.908-2.229h-7.178l-1.346,3.13
		c-0.59,1.341,0.422,2.105,1.288,2.105h0.295v0.332h-7.486v-0.336h0.302c0.938,0,2.059-0.536,2.784-1.811l6.853-15.003
		c-1.464-3.936-3.494-7.846-7.316-6.445l-0.063-0.339c6.307-3.774,11.259-0.489,14.296,6.448l5.377,12.28
		c2.364,5.406,5.736,12.247,11.833,10.604L180.477,74.34z M160.09,61.364l-2.111-5.179c-0.21-0.516-0.421-1.102-0.64-1.728
		l-3.012,6.906H160.09z"/>
	<linearGradient id="SVGID_4_" gradientUnits="userSpaceOnUse" x1="186.5957" y1="43.2344" x2="186.3291" y2="76.8296">
		<stop  offset="0" style="stop-color:#E5E2DF"/>
		<stop  offset="0" style="stop-color:#DED9D6"/>
		<stop  offset="0.0616" style="stop-color:#CECAC9"/>
		<stop  offset="0.1794" style="stop-color:#A8A4A7"/>
		<stop  offset="0.264" style="stop-color:#8B878D"/>
		<stop  offset="0.5225" style="stop-color:#F3F4F4"/>
		<stop  offset="0.5875" style="stop-color:#E0DFE0"/>
		<stop  offset="0.7124" style="stop-color:#B7B4B8"/>
		<stop  offset="0.8764" style="stop-color:#807B80"/>
		<stop  offset="1" style="stop-color:#D1D3D4"/>
		<stop  offset="1" style="stop-color:#A7A9AC"/>
	</linearGradient>
	<path fill="url(#SVGID_4_)" d="M209.486,73.134c-5.225,3.185-10.16-0.269-13.287-3.487l-14.729-15.229v11.823
		c0.021,1.126,0.939,2.032,2.068,2.032h0.621l0.005,0.334h-12.271l0.004-0.334h0.619c1.131,0,2.049-0.906,2.07-2.031V47.236
		c-2.573-2.73-6.885-6.707-10.942-5.135l-0.167-0.325c4.795-3.383,10.318,0.454,13.261,3.496l13.781,14.251V47.504
		c-0.021-1.125-0.938-2.032-2.069-2.032h-0.619l-0.004-0.335h12.272l-0.005,0.335h-0.619c-1.121,0-2.033,0.892-2.068,2.004v19.166
		l0.59,0.609c1.945,2.025,6.026,7.055,11.332,5.547L209.486,73.134z"/>
	<linearGradient id="SVGID_5_" gradientUnits="userSpaceOnUse" x1="208.0703" y1="43.4048" x2="207.8037" y2="76.9995">
		<stop  offset="0" style="stop-color:#E5E2DF"/>
		<stop  offset="0" style="stop-color:#DED9D6"/>
		<stop  offset="0.0616" style="stop-color:#CECAC9"/>
		<stop  offset="0.1794" style="stop-color:#A8A4A7"/>
		<stop  offset="0.264" style="stop-color:#8B878D"/>
		<stop  offset="0.5225" style="stop-color:#F3F4F4"/>
		<stop  offset="0.5875" style="stop-color:#E0DFE0"/>
		<stop  offset="0.7124" style="stop-color:#B7B4B8"/>
		<stop  offset="0.8764" style="stop-color:#807B80"/>
		<stop  offset="1" style="stop-color:#D1D3D4"/>
		<stop  offset="1" style="stop-color:#A7A9AC"/>
	</linearGradient>
	<path fill="url(#SVGID_5_)" d="M213.904,66.165c0.021,1.167,0.973,2.106,2.146,2.106h0.424l0.006,0.336h-12.029l0.006-0.336h0.424
		c1.174,0,2.127-0.939,2.148-2.106V46.818l-2.917,0.102c-1.874,0.065-2.88,0.666-3.015,2.073c-0.1,1.375,0.906,2.448,2.638,2.273
		v0.195c-1.899,1.086-4.417-0.249-4.316-2.668c0.067-1.706,1.308-3.353,4.999-3.521c2.352-0.107,8.885-0.201,12.061-0.807
		l0.061,0.335c-1.971,0.312-2.594,1.308-2.635,3.233V66.165z"/>
	<linearGradient id="SVGID_6_" gradientUnits="userSpaceOnUse" x1="228.8428" y1="43.5698" x2="228.5761" y2="77.1649">
		<stop  offset="0" style="stop-color:#E5E2DF"/>
		<stop  offset="0" style="stop-color:#DED9D6"/>
		<stop  offset="0.0616" style="stop-color:#CECAC9"/>
		<stop  offset="0.1794" style="stop-color:#A8A4A7"/>
		<stop  offset="0.264" style="stop-color:#8B878D"/>
		<stop  offset="0.5225" style="stop-color:#F3F4F4"/>
		<stop  offset="0.5875" style="stop-color:#E0DFE0"/>
		<stop  offset="0.7124" style="stop-color:#B7B4B8"/>
		<stop  offset="0.8764" style="stop-color:#807B80"/>
		<stop  offset="1" style="stop-color:#D1D3D4"/>
		<stop  offset="1" style="stop-color:#A7A9AC"/>
	</linearGradient>
	<path fill="url(#SVGID_6_)" d="M242.291,51.394l-0.338-0.005v-0.262c0.006-2.676-1.592-4.291-4.303-4.346h-3.293v19.411
		c0.035,1.155,0.982,2.083,2.145,2.081h0.426l0.006,0.335H224.9l0.004-0.335h0.424c1.166-0.002,2.096-0.913,2.148-2.059V46.78
		h-6.262c-3.701,0-6.006,2.881-3.533,6.767l-0.359,0.167c-4.123-3.605-1.576-8.608,3.893-8.608h17.131
		c1.439-0.022,3.33-0.351,3.945-0.61V51.394z"/>
	<linearGradient id="SVGID_7_" gradientUnits="userSpaceOnUse" x1="257.623" y1="43.7974" x2="257.3564" y2="77.3922">
		<stop  offset="0" style="stop-color:#E5E2DF"/>
		<stop  offset="0" style="stop-color:#DED9D6"/>
		<stop  offset="0.0616" style="stop-color:#CECAC9"/>
		<stop  offset="0.1794" style="stop-color:#A8A4A7"/>
		<stop  offset="0.264" style="stop-color:#8B878D"/>
		<stop  offset="0.5225" style="stop-color:#F3F4F4"/>
		<stop  offset="0.5875" style="stop-color:#E0DFE0"/>
		<stop  offset="0.7124" style="stop-color:#B7B4B8"/>
		<stop  offset="0.8764" style="stop-color:#807B80"/>
		<stop  offset="1" style="stop-color:#D1D3D4"/>
		<stop  offset="1" style="stop-color:#A7A9AC"/>
	</linearGradient>
	<path fill="url(#SVGID_7_)" d="M273.238,40.04c-4.33,1.341-4.299,5.096-4.332,8.113v18.009c0.014,1.103,0.918,2.108,2.148,2.108
		h0.424l0.006,0.336h-12.031l0.006-0.336h0.424c1.174,0,2.127-0.941,2.162-2.108v-8.453h-8.984v8.55
		c0,5.096-3.035,10.997-11.266,8.448v-0.334c4.334-1.712,4.389-4.762,4.389-8.114v-18.71c-0.035-1.154-0.982-2.08-2.141-2.077h-0.43
		l-0.006-0.335h12.029l-0.006,0.335h-0.424c-1.125,0.003-2.088,0.853-2.146,2.063v8.502h9v-7.879
		c0.01-5.097,4.426-10.092,11.178-8.449V40.04z"/>
	<linearGradient id="SVGID_8_" gradientUnits="userSpaceOnUse" x1="279.5254" y1="38.6504" x2="279.2588" y2="72.2425">
		<stop  offset="0" style="stop-color:#E5E2DF"/>
		<stop  offset="0" style="stop-color:#DED9D6"/>
		<stop  offset="0.0616" style="stop-color:#CECAC9"/>
		<stop  offset="0.1794" style="stop-color:#A8A4A7"/>
		<stop  offset="0.264" style="stop-color:#8B878D"/>
		<stop  offset="0.5225" style="stop-color:#F3F4F4"/>
		<stop  offset="0.5875" style="stop-color:#E0DFE0"/>
		<stop  offset="0.7124" style="stop-color:#B7B4B8"/>
		<stop  offset="0.8764" style="stop-color:#807B80"/>
		<stop  offset="1" style="stop-color:#D1D3D4"/>
		<stop  offset="1" style="stop-color:#A7A9AC"/>
	</linearGradient>
	<path fill="url(#SVGID_8_)" d="M276.48,44.7c1.23-0.56,2.422-2.343,0.617-4.441c-1.229-1.428-1.021-3.847,0.307-4.826
		c1.533-1.154,3.988-0.49,4.842,1.434c1.855,4.126-1.535,9.093-5.635,8.288L276.48,44.7z"/>
	<g>
		<linearGradient id="SVGID_9_" gradientUnits="userSpaceOnUse" x1="118.6953" y1="41.5527" x2="118.6953" y2="76.2137">
			<stop  offset="0" style="stop-color:#E5E2DF"/>
			<stop  offset="0" style="stop-color:#DED9D6"/>
			<stop  offset="0.0616" style="stop-color:#CECAC9"/>
			<stop  offset="0.1794" style="stop-color:#A8A4A7"/>
			<stop  offset="0.264" style="stop-color:#8B878D"/>
			<stop  offset="0.5225" style="stop-color:#F3F4F4"/>
			<stop  offset="0.5875" style="stop-color:#E0DFE0"/>
			<stop  offset="0.7124" style="stop-color:#B7B4B8"/>
			<stop  offset="0.8764" style="stop-color:#807B80"/>
			<stop  offset="1" style="stop-color:#D1D3D4"/>
			<stop  offset="1" style="stop-color:#A7A9AC"/>
		</linearGradient>
		<path fill="url(#SVGID_9_)" d="M131.46,76.096c-4.875,0-9.247-2.901-11.237-7.426c-1.846,0.527-3.877,0.806-5.899,0.806
			c-4.237,0-7.876-1.195-10.523-3.457c-2.677-2.286-4.092-5.45-4.092-9.147c0-7.538,6.037-12.604,15.022-12.604
			c3.611,0,8.059,0.685,10.126,1.559l0.258,0.109l-0.363,7.071h-0.968l-0.078-0.299c-0.989-3.789-4.005-5.962-8.276-5.962
			c-4.513,0-7.546,4.151-7.546,10.329c0,5.938,2.898,9.925,7.211,9.925c1.374,0,2.529-0.398,3.252-1.124
			c0.538-0.538,0.82-1.248,0.818-2.05v-4.573c0.003-0.344-0.088-0.61-0.271-0.795c-0.215-0.217-0.572-0.332-1.03-0.332h-0.933V56.99
			h12.06v1.135h-0.905c-0.457,0-0.809,0.113-1.017,0.326c-0.178,0.182-0.264,0.447-0.258,0.789v5.43
			c0.024,4.446,3.192,9.248,8.271,9.248c0.645,0,1.314-0.079,1.988-0.234l0.401-0.094l0.211,1.053l-0.293,0.13
			C135.402,75.65,133.408,76.096,131.46,76.096z M120.685,67.696l0.138,0.339c1.795,4.411,5.972,7.261,10.638,7.261
			c1.246,0,2.515-0.194,3.79-0.58c-0.057,0.002-0.113,0.002-0.169,0.002c-5.569,0-9.044-5.214-9.07-10.046v-5.424
			c-0.011-0.549,0.157-1.021,0.486-1.357c0.034-0.034,0.071-0.068,0.108-0.1h-7.256c0.039,0.031,0.077,0.066,0.112,0.104
			c0.334,0.336,0.508,0.808,0.504,1.361v4.567c0.003,1.02-0.361,1.924-1.052,2.618c-0.875,0.876-2.23,1.359-3.818,1.359
			c-4.792,0-8.01-4.312-8.01-10.727c0-6.657,3.354-11.129,8.346-11.129c4.089,0,7.218,1.942,8.613,5.264l0.244-4.75
			c-2.082-0.789-6.184-1.392-9.557-1.392c-8.64,0-14.222,4.633-14.222,11.803c0,7.061,5.552,11.805,13.815,11.805
			c2.07,0,4.149-0.302,6.011-0.873L120.685,67.696z"/>
	</g>
	<g>
		<linearGradient id="SVGID_10_" gradientUnits="userSpaceOnUse" x1="138.8149" y1="41.5532" x2="138.8149" y2="76.2157">
			<stop  offset="0" style="stop-color:#E5E2DF"/>
			<stop  offset="0" style="stop-color:#DED9D6"/>
			<stop  offset="0.0616" style="stop-color:#CECAC9"/>
			<stop  offset="0.1794" style="stop-color:#A8A4A7"/>
			<stop  offset="0.264" style="stop-color:#8B878D"/>
			<stop  offset="0.5225" style="stop-color:#F3F4F4"/>
			<stop  offset="0.5875" style="stop-color:#E0DFE0"/>
			<stop  offset="0.7124" style="stop-color:#B7B4B8"/>
			<stop  offset="0.8764" style="stop-color:#807B80"/>
			<stop  offset="1" style="stop-color:#D1D3D4"/>
			<stop  offset="1" style="stop-color:#A7A9AC"/>
		</linearGradient>
		<path fill="url(#SVGID_10_)" d="M145.931,69.008H133.09l0.018-1.136h0.833c0.936,0,1.714-0.769,1.733-1.711l0-8.319
			c-1.073-5.153-4.92-13.463-10.723-13.948l-0.367-0.03l0.001-1.072l0.366-0.031c0.618-0.052,1.235-0.079,1.837-0.079
			c6.944,0,12.497,3.479,15.055,9.364c1.892-4.676,5.961-9.303,10.353-9.303c0.159,0,0.319,0.005,0.478,0.018l0.37,0.027v1.089
			l-0.382,0.017c-4.067,0.18-8.667,9.332-9.315,13.953v8.317c0.01,0.818,0.685,1.707,1.759,1.707h0.807L145.931,69.008z
			 M135.392,68.208h8.243c-0.648-0.453-1.077-1.199-1.087-2.038l0.004-8.404c0.569-4.149,4.04-11.645,7.936-13.967
			c-3.649,1.079-6.865,5.395-8.25,9.489l-0.366,1.081l-0.39-1.073c-2.226-6.13-7.698-9.796-14.644-9.813
			c5.248,1.81,8.592,9.207,9.629,14.239l0.008,0.08v8.368C136.458,67.011,136.031,67.755,135.392,68.208z"/>
	</g>
	<g>
		<linearGradient id="SVGID_11_" gradientUnits="userSpaceOnUse" x1="163.3291" y1="41.5527" x2="163.3291" y2="76.2143">
			<stop  offset="0" style="stop-color:#E5E2DF"/>
			<stop  offset="0" style="stop-color:#DED9D6"/>
			<stop  offset="0.0616" style="stop-color:#CECAC9"/>
			<stop  offset="0.1794" style="stop-color:#A8A4A7"/>
			<stop  offset="0.264" style="stop-color:#8B878D"/>
			<stop  offset="0.5225" style="stop-color:#F3F4F4"/>
			<stop  offset="0.5875" style="stop-color:#E0DFE0"/>
			<stop  offset="0.7124" style="stop-color:#B7B4B8"/>
			<stop  offset="0.8764" style="stop-color:#807B80"/>
			<stop  offset="1" style="stop-color:#D1D3D4"/>
			<stop  offset="1" style="stop-color:#A7A9AC"/>
		</linearGradient>
		<path fill="url(#SVGID_11_)" d="M174.8,76.254c-5.657,0-10.866-4.151-13.593-10.834l-0.806-1.979h-6.646l-1.242,2.887
			c-0.188,0.427-0.189,0.799-0.007,1.079c0.182,0.281,0.555,0.468,0.927,0.468h0.695v1.133h-8.286v-1.136h0.702
			c0.948,0,1.855-0.595,2.427-1.594l6.777-14.835c-1.184-3.152-2.751-6.321-5.36-6.321c-0.438,0-0.903,0.09-1.385,0.267
			l-0.444,0.163l-0.201-1.077l0.239-0.142c1.821-1.09,3.602-1.644,5.292-1.644c3.895,0,7.207,2.861,9.576,8.273l5.377,12.282
			c2.246,5.135,5.03,10.611,9.667,10.611c0.548,0,1.116-0.08,1.696-0.236l0.417-0.111l0.194,1.037l-0.242,0.142
			C178.81,75.712,176.813,76.254,174.8,76.254z M153.229,62.642h7.709l1.009,2.478c2.642,6.472,7.446,10.335,12.853,10.335
			c1.387,0,2.767-0.277,4.056-0.81c-0.117,0.007-0.232,0.011-0.347,0.011c-5.118,0-8.052-5.726-10.4-11.092l-5.377-12.281
			c-1.557-3.556-4.354-7.794-8.843-7.794c-1.139,0-2.332,0.28-3.56,0.834c0.02,0,0.039,0,0.059,0c3.142,0,4.881,3.537,6.168,6.996
			l0.057,0.155l-6.938,15.184c-0.382,0.675-0.895,1.203-1.48,1.551h3.963c-0.125-0.106-0.234-0.229-0.321-0.362
			c-0.333-0.511-0.353-1.162-0.057-1.835L153.229,62.642z M160.581,61.766h-6.968l3.664-8.404l0.336,0.964
			c0.187,0.537,0.409,1.158,0.633,1.707L160.581,61.766z M154.834,60.965h4.557l-1.887-4.629c-0.104-0.256-0.207-0.523-0.306-0.793
			L154.834,60.965z"/>
	</g>
	<g>
		<linearGradient id="SVGID_12_" gradientUnits="userSpaceOnUse" x1="186.3779" y1="41.5532" x2="186.3779" y2="76.2152">
			<stop  offset="0" style="stop-color:#E5E2DF"/>
			<stop  offset="0" style="stop-color:#DED9D6"/>
			<stop  offset="0.0616" style="stop-color:#CECAC9"/>
			<stop  offset="0.1794" style="stop-color:#A8A4A7"/>
			<stop  offset="0.264" style="stop-color:#8B878D"/>
			<stop  offset="0.5225" style="stop-color:#F3F4F4"/>
			<stop  offset="0.5875" style="stop-color:#E0DFE0"/>
			<stop  offset="0.7124" style="stop-color:#B7B4B8"/>
			<stop  offset="0.8764" style="stop-color:#807B80"/>
			<stop  offset="1" style="stop-color:#D1D3D4"/>
			<stop  offset="1" style="stop-color:#A7A9AC"/>
		</linearGradient>
		<path fill="url(#SVGID_12_)" d="M205.084,74.799c-3.014,0-6.135-1.641-9.275-4.873l-14.043-14.519v10.834
			c0.018,0.896,0.767,1.631,1.67,1.631h1.014l0.018,1.136h-13.084l0.019-1.136h1.013c0.902,0,1.651-0.734,1.67-1.638V47.396
			c-1.352-1.431-5.05-5.25-8.625-5.25c-0.613,0-1.209,0.111-1.773,0.329l-0.334,0.13l-0.493-0.953l0.285-0.201
			c1.31-0.924,2.76-1.393,4.31-1.393c4.236,0,8.033,3.453,9.469,4.938l13.094,13.541V47.504c-0.016-0.896-0.766-1.632-1.669-1.632
			h-1.013l-0.018-1.135h13.086l-0.018,1.135h-1.013c-0.907,0-1.64,0.71-1.669,1.617V66.48l0.478,0.494
			c0.163,0.171,0.343,0.362,0.536,0.568c1.791,1.92,4.789,5.135,8.545,5.135c0.617,0,1.242-0.09,1.854-0.265l0.328-0.094
			l0.453,0.969l-0.307,0.188C208.15,74.354,206.633,74.799,205.084,74.799z M180.966,53.43l15.417,15.939
			c3.99,4.107,7.883,5.523,11.48,4.084c-0.201,0.016-0.402,0.023-0.602,0.023c-4.104,0-7.25-3.373-9.129-5.388
			c-0.192-0.203-0.367-0.393-0.527-0.559l-0.702-0.725V47.477c0.026-0.808,0.421-1.506,1.021-1.94h-8.143
			c0.613,0.442,1.02,1.156,1.035,1.96v13.017l-14.47-14.963c-1.364-1.411-4.964-4.694-8.894-4.694c-0.886,0-1.735,0.173-2.54,0.515
			c0.18-0.018,0.362-0.026,0.546-0.026c3.604,0,7.043,3.206,9.315,5.617l0.108,0.116v19.165c-0.016,0.809-0.422,1.523-1.035,1.966
			h8.154c-0.613-0.442-1.02-1.155-1.036-1.96V53.43z"/>
	</g>
	<g>
		<linearGradient id="SVGID_13_" gradientUnits="userSpaceOnUse" x1="207.9072" y1="41.5537" x2="207.9072" y2="76.2151">
			<stop  offset="0" style="stop-color:#E5E2DF"/>
			<stop  offset="0" style="stop-color:#DED9D6"/>
			<stop  offset="0.0616" style="stop-color:#CECAC9"/>
			<stop  offset="0.1794" style="stop-color:#A8A4A7"/>
			<stop  offset="0.264" style="stop-color:#8B878D"/>
			<stop  offset="0.5225" style="stop-color:#F3F4F4"/>
			<stop  offset="0.5875" style="stop-color:#E0DFE0"/>
			<stop  offset="0.7124" style="stop-color:#B7B4B8"/>
			<stop  offset="0.8764" style="stop-color:#807B80"/>
			<stop  offset="1" style="stop-color:#D1D3D4"/>
			<stop  offset="1" style="stop-color:#A7A9AC"/>
		</linearGradient>
		<path fill="url(#SVGID_13_)" d="M216.783,69.008h-12.842l0.017-1.136h0.817c0.947,0,1.73-0.77,1.748-1.716V47.232l-2.5,0.086
			c-2.182,0.076-2.555,0.908-2.631,1.713c-0.037,0.504,0.111,0.97,0.42,1.3c0.391,0.423,1.019,0.613,1.777,0.537l0.441-0.045v0.87
			l-0.201,0.116c-0.498,0.284-1.063,0.435-1.631,0.435c-0.898,0-1.768-0.37-2.387-1.014c-0.617-0.644-0.937-1.516-0.897-2.454
			c0.043-1.102,0.653-3.688,5.38-3.903c0.461-0.021,1.08-0.041,1.803-0.065c2.869-0.095,7.676-0.253,10.201-0.735l0.396-0.075
			l0.207,1.134l-0.404,0.064c-1.68,0.265-2.26,0.983-2.299,2.846v18.123c0.018,0.938,0.801,1.707,1.748,1.707h0.816L216.783,69.008z
			 M206.234,68.208h8.254c-0.645-0.453-1.072-1.197-1.09-2.037V48.034c0.031-1.382,0.367-2.311,1.098-2.897
			c-2.592,0.28-5.965,0.391-8.373,0.471c-0.719,0.023-1.334,0.044-1.793,0.065c-2.902,0.132-4.541,1.246-4.615,3.137
			c-0.039,0.921,0.346,1.524,0.675,1.868c0.425,0.443,1.01,0.715,1.623,0.76c-0.301-0.135-0.565-0.321-0.788-0.56
			c-0.459-0.496-0.684-1.174-0.629-1.913c0.149-1.574,1.262-2.371,3.398-2.444l3.33-0.116v19.76
			C207.309,67.008,206.879,67.753,206.234,68.208z"/>
	</g>
	<g>
		<linearGradient id="SVGID_14_" gradientUnits="userSpaceOnUse" x1="228.6816" y1="41.5532" x2="228.6816" y2="76.214">
			<stop  offset="0" style="stop-color:#E5E2DF"/>
			<stop  offset="0" style="stop-color:#DED9D6"/>
			<stop  offset="0.0616" style="stop-color:#CECAC9"/>
			<stop  offset="0.1794" style="stop-color:#A8A4A7"/>
			<stop  offset="0.264" style="stop-color:#8B878D"/>
			<stop  offset="0.5225" style="stop-color:#F3F4F4"/>
			<stop  offset="0.5875" style="stop-color:#E0DFE0"/>
			<stop  offset="0.7124" style="stop-color:#B7B4B8"/>
			<stop  offset="0.8764" style="stop-color:#807B80"/>
			<stop  offset="1" style="stop-color:#D1D3D4"/>
			<stop  offset="1" style="stop-color:#A7A9AC"/>
		</linearGradient>
		<path fill="url(#SVGID_14_)" d="M237.234,69.008h-12.846l0.018-1.134h0.818c0.936-0.002,1.703-0.738,1.746-1.678V47.181h-5.861
			c-1.746,0-3.166,0.687-3.799,1.837c-0.639,1.165-0.426,2.698,0.604,4.314l0.244,0.385l-1.006,0.471l-0.197-0.172
			c-1.918-1.677-2.625-3.839-1.895-5.786c0.803-2.141,3.18-3.524,6.049-3.524h17.131c1.451-0.021,3.273-0.36,3.789-0.578
			l0.557-0.234V51.8l-1.139-0.017v-0.656c0.008-2.459-1.418-3.896-3.91-3.945h-2.885v19.011c0.029,0.937,0.795,1.682,1.744,1.682
			h0.82L237.234,69.008z M226.689,68.208h8.234c-0.629-0.444-1.045-1.169-1.07-2.003l-0.002-19.823h3.695
			c2.061,0.04,3.537,0.917,4.238,2.431v-3.772c-0.883,0.229-2.346,0.447-3.539,0.464h-17.137c-2.535,0-4.615,1.18-5.301,3.006
			c-0.486,1.293-0.213,2.675,0.742,3.92c-0.553-1.393-0.539-2.708,0.059-3.799c0.775-1.41,2.457-2.252,4.5-2.252h6.66v19.834
			C227.732,67.048,227.314,67.768,226.689,68.208z"/>
	</g>
	<g>
		<linearGradient id="SVGID_15_" gradientUnits="userSpaceOnUse" x1="257.4141" y1="41.5537" x2="257.4141" y2="76.216">
			<stop  offset="0" style="stop-color:#E5E2DF"/>
			<stop  offset="0" style="stop-color:#DED9D6"/>
			<stop  offset="0.0616" style="stop-color:#CECAC9"/>
			<stop  offset="0.1794" style="stop-color:#A8A4A7"/>
			<stop  offset="0.264" style="stop-color:#8B878D"/>
			<stop  offset="0.5225" style="stop-color:#F3F4F4"/>
			<stop  offset="0.5875" style="stop-color:#E0DFE0"/>
			<stop  offset="0.7124" style="stop-color:#B7B4B8"/>
			<stop  offset="0.8764" style="stop-color:#807B80"/>
			<stop  offset="1" style="stop-color:#D1D3D4"/>
			<stop  offset="1" style="stop-color:#A7A9AC"/>
		</linearGradient>
		<path fill="url(#SVGID_15_)" d="M245.365,75.721c-1.164,0-2.439-0.213-3.793-0.633l-0.279-0.086v-0.903l0.252-0.1
			c4.133-1.633,4.133-4.464,4.133-7.741V47.548c-0.027-0.935-0.791-1.677-1.734-1.677h-0.828l-0.02-1.135h12.842l-0.018,1.135
			h-0.818c-0.947,0.002-1.699,0.725-1.746,1.682v8.082h8.201v-7.479c0.006-4.507,3.385-9.167,9.025-9.167
			c0.855,0,1.746,0.111,2.646,0.33l0.307,0.074v0.941l-0.283,0.087c-3.98,1.232-4.018,4.609-4.049,7.588l-0.002,0.148v18.003
			c0.01,0.82,0.682,1.708,1.75,1.71h0.818l0.016,1.134h-12.844l0.02-1.134h0.818c0.957,0,1.732-0.757,1.762-1.722l-0.002-8.04
			h-8.184v8.148c0,4.709-2.471,9.461-7.988,9.463H245.365z M242.412,74.498c1.051,0.279,2.041,0.421,2.953,0.421h0.002
			c5.307,0,7.188-4.665,7.188-8.661v-8.949h9.785v8.853c-0.025,0.854-0.447,1.595-1.086,2.044h8.23
			c-0.645-0.454-1.07-1.199-1.082-2.038L268.404,48c0.029-2.754,0.068-6.467,3.852-8.067c-0.568-0.097-1.131-0.146-1.674-0.146
			c-5.141,0-8.221,4.255-8.227,8.369v8.278h-9.801v-8.902c0.043-0.844,0.451-1.559,1.07-1.998h-8.215
			c0.629,0.444,1.043,1.168,1.068,2.001v18.722C246.479,69.389,246.479,72.619,242.412,74.498z"/>
	</g>
	<g>
		<linearGradient id="SVGID_16_" gradientUnits="userSpaceOnUse" x1="279.4229" y1="36.251" x2="279.4229" y2="70.9113">
			<stop  offset="0" style="stop-color:#E5E2DF"/>
			<stop  offset="0" style="stop-color:#DED9D6"/>
			<stop  offset="0.0616" style="stop-color:#CECAC9"/>
			<stop  offset="0.1794" style="stop-color:#A8A4A7"/>
			<stop  offset="0.264" style="stop-color:#8B878D"/>
			<stop  offset="0.5225" style="stop-color:#F3F4F4"/>
			<stop  offset="0.5875" style="stop-color:#E0DFE0"/>
			<stop  offset="0.7124" style="stop-color:#B7B4B8"/>
			<stop  offset="0.8764" style="stop-color:#807B80"/>
			<stop  offset="1" style="stop-color:#D1D3D4"/>
			<stop  offset="1" style="stop-color:#A7A9AC"/>
		</linearGradient>
		<path fill="url(#SVGID_16_)" d="M277.393,45.641c-0.318,0-0.639-0.031-0.957-0.093l-0.232-0.046l-0.295-1.025l0.314-0.142
			c0.479-0.219,1.1-0.75,1.264-1.53c0.154-0.72-0.115-1.508-0.783-2.281c-0.688-0.8-1.012-1.907-0.889-3.037
			c0.111-1.003,0.57-1.87,1.262-2.379c0.557-0.42,1.244-0.644,1.98-0.644c1.488,0,2.84,0.878,3.441,2.237
			c0.885,1.964,0.711,4.269-0.469,6.161C280.941,44.603,279.211,45.641,277.393,45.641z M276.971,44.82
			c1.707,0.172,3.375-0.744,4.4-2.389c1.035-1.662,1.191-3.679,0.42-5.396c-0.473-1.061-1.57-1.771-2.734-1.771
			c-0.568,0-1.096,0.169-1.523,0.491c-0.514,0.378-0.855,1.042-0.943,1.82c-0.1,0.893,0.164,1.797,0.697,2.418
			c1.059,1.228,1.107,2.299,0.963,2.981C278.068,43.822,277.527,44.444,276.971,44.82z"/>
	</g>
	<linearGradient id="SVGID_17_" gradientUnits="userSpaceOnUse" x1="112.2993" y1="58.8101" x2="112.8326" y2="33.4786">
		<stop  offset="0" style="stop-color:#FFFFFF"/>
		<stop  offset="1" style="stop-color:#000000"/>
	</linearGradient>
	<path fill="url(#SVGID_17_)" d="M115.477,46.189c4.089,0,7.218,1.942,8.613,5.264l0.244-4.75c-2.082-0.789-6.183-1.392-9.557-1.392
		c-8.51,0-14.05,4.497-14.214,11.485h6.577C107.312,50.429,110.617,46.189,115.477,46.189z"/>
	<linearGradient id="SVGID_18_" gradientUnits="userSpaceOnUse" x1="137.4224" y1="59.3394" x2="137.9556" y2="34.0087">
		<stop  offset="0" style="stop-color:#FFFFFF"/>
		<stop  offset="1" style="stop-color:#000000"/>
	</linearGradient>
	<path fill="url(#SVGID_18_)" d="M142.283,53.531l-0.365,1.08l-0.39-1.072c-2.226-6.13-7.698-9.795-14.645-9.812
		c4.855,1.675,8.079,8.127,9.355,13.07h6.586c0.794-3.457,3.043-8.305,5.753-11.142l-0.119-0.637
		C145.701,46.796,143.399,50.235,142.283,53.531z"/>
	<linearGradient id="SVGID_19_" gradientUnits="userSpaceOnUse" x1="258.4824" y1="61.8877" x2="259.0157" y2="36.5576">
		<stop  offset="0" style="stop-color:#FFFFFF"/>
		<stop  offset="1" style="stop-color:#000000"/>
	</linearGradient>
	<path fill="url(#SVGID_19_)" d="M272.303,40.177c-0.57-0.096-1.129-0.145-1.676-0.145c-5.139,0-8.217,4.254-8.225,8.368v8.279
		h-9.801v-8.902c0.041-0.844,0.451-1.559,1.07-1.998h-8.215c0.627,0.444,1.043,1.167,1.068,2v9.017h21.924l0.002-8.552
		C268.48,45.49,268.52,41.778,272.303,40.177z"/>
	<linearGradient id="SVGID_20_" gradientUnits="userSpaceOnUse" x1="157.9126" y1="59.77" x2="158.4459" y2="34.4397">
		<stop  offset="0" style="stop-color:#FFFFFF"/>
		<stop  offset="1" style="stop-color:#000000"/>
	</linearGradient>
	<path fill="url(#SVGID_20_)" d="M152.709,44.139c-0.523,0.023-1.057,0.197-1.588,0.49c2.713,0.475,4.291,3.736,5.48,6.934
		l0.058,0.155l-2.321,5.08h1.593l1.391-3.191l0.336,0.964c0.187,0.535,0.409,1.158,0.633,1.707l0.211,0.52h6.583l-2.308-5.27
		c-1.556-3.556-4.354-7.794-8.843-7.794c-0.278,0-0.559,0.017-0.843,0.05v0.339L152.709,44.139z"/>
	<linearGradient id="SVGID_21_" gradientUnits="userSpaceOnUse" x1="193.5908" y1="60.5215" x2="194.1241" y2="35.1906">
		<stop  offset="0" style="stop-color:#FFFFFF"/>
		<stop  offset="1" style="stop-color:#000000"/>
	</linearGradient>
	<path fill="url(#SVGID_21_)" d="M196.949,47.721c0.027-0.807,0.423-1.506,1.023-1.939h-8.145c0.612,0.441,1.02,1.155,1.034,1.959
		v9.056h6.087V47.721z"/>
	<linearGradient id="SVGID_22_" gradientUnits="userSpaceOnUse" x1="175.7656" y1="60.1465" x2="176.2989" y2="34.8148">
		<stop  offset="0" style="stop-color:#FFFFFF"/>
		<stop  offset="1" style="stop-color:#000000"/>
	</linearGradient>
	<path fill="url(#SVGID_22_)" d="M167.5,41.1c-0.885,0-1.736,0.172-2.541,0.515c0.181-0.017,0.364-0.025,0.547-0.025
		c3.604,0,7.043,3.206,9.316,5.616l0.108,0.116v9.475h6.083v-3.124l3.021,3.124h2.998l-10.637-11.002
		C175.029,44.383,171.43,41.1,167.5,41.1z"/>
	<linearGradient id="SVGID_23_" gradientUnits="userSpaceOnUse" x1="206.8662" y1="60.8013" x2="207.3995" y2="35.4698">
		<stop  offset="0" style="stop-color:#FFFFFF"/>
		<stop  offset="1" style="stop-color:#000000"/>
	</linearGradient>
	<path fill="url(#SVGID_23_)" d="M214.543,45.38c-2.594,0.28-5.965,0.392-8.373,0.471c-0.719,0.024-1.334,0.044-1.791,0.064
		c-2.904,0.132-4.543,1.246-4.617,3.137c-0.038,0.922,0.346,1.524,0.676,1.868c0.426,0.443,1.008,0.715,1.623,0.761
		c-0.303-0.134-0.566-0.322-0.788-0.561c-0.46-0.495-0.685-1.174-0.631-1.912c0.15-1.574,1.262-2.37,3.399-2.445l3.33-0.115v10.148
		h6.074v-8.519C213.477,46.896,213.811,45.967,214.543,45.38z"/>
	<linearGradient id="SVGID_24_" gradientUnits="userSpaceOnUse" x1="228.4785" y1="61.2559" x2="229.0118" y2="35.9253">
		<stop  offset="0" style="stop-color:#FFFFFF"/>
		<stop  offset="1" style="stop-color:#000000"/>
	</linearGradient>
	<path fill="url(#SVGID_24_)" d="M237.594,46.625c2.059,0.041,3.535,0.917,4.238,2.431v-3.771c-0.883,0.228-2.346,0.446-3.539,0.464
		h-17.137c-2.533,0-4.615,1.18-5.301,3.006c-0.486,1.294-0.213,2.675,0.742,3.921c-0.553-1.393-0.539-2.709,0.061-3.799
		c0.773-1.41,2.455-2.252,4.498-2.252h6.662v10.172h6.082V46.625H237.594z"/>
	<linearGradient id="SVGID_25_" gradientUnits="userSpaceOnUse" x1="279.0869" y1="56.9629" x2="279.6201" y2="31.6374">
		<stop  offset="0" style="stop-color:#FFFFFF"/>
		<stop  offset="1" style="stop-color:#000000"/>
	</linearGradient>
	<path fill="url(#SVGID_25_)" d="M279.102,35.508c-0.57,0-1.096,0.17-1.523,0.492c-0.514,0.379-0.857,1.042-0.941,1.82
		c-0.1,0.893,0.162,1.797,0.697,2.418c1.059,1.228,1.105,2.299,0.959,2.981c-0.18,0.847-0.721,1.469-1.275,1.845
		c1.705,0.172,3.373-0.744,4.4-2.389c1.035-1.661,1.189-3.678,0.418-5.396C281.365,36.218,280.268,35.508,279.102,35.508z"/>
	<linearGradient id="SVGID_26_" gradientUnits="userSpaceOnUse" x1="289.458" y1="45.4932" x2="289.212" y2="76.4879">
		<stop  offset="0" style="stop-color:#E5E2DF"/>
		<stop  offset="0" style="stop-color:#DED9D6"/>
		<stop  offset="0.0616" style="stop-color:#CECAC9"/>
		<stop  offset="0.1794" style="stop-color:#A8A4A7"/>
		<stop  offset="0.264" style="stop-color:#8B878D"/>
		<stop  offset="0.5225" style="stop-color:#F3F4F4"/>
		<stop  offset="0.5875" style="stop-color:#E0DFE0"/>
		<stop  offset="0.7124" style="stop-color:#B7B4B8"/>
		<stop  offset="0.8764" style="stop-color:#807B80"/>
		<stop  offset="1" style="stop-color:#D1D3D4"/>
		<stop  offset="1" style="stop-color:#A7A9AC"/>
	</linearGradient>
	<path fill="url(#SVGID_26_)" d="M294.244,67.739l0.004,0.423h-9.738l0.004-0.423h0.57c0.824,0,1.508-1.022,1.508-2.292V45.465
		c0-1.256-0.689-2.263-1.506-2.263h-0.572l-0.004-0.422h9.74l-0.004,0.421h-0.57c-0.813-0.001-1.488,0.991-1.51,2.232v20.039
		c0,1.256,0.691,2.263,1.508,2.263L294.244,67.739z"/>
	<linearGradient id="SVGID_27_" gradientUnits="userSpaceOnUse" x1="306.2295" y1="44.3643" x2="305.9944" y2="73.9831">
		<stop  offset="0" style="stop-color:#E5E2DF"/>
		<stop  offset="0" style="stop-color:#DED9D6"/>
		<stop  offset="0.0616" style="stop-color:#CECAC9"/>
		<stop  offset="0.1794" style="stop-color:#A8A4A7"/>
		<stop  offset="0.264" style="stop-color:#8B878D"/>
		<stop  offset="0.5225" style="stop-color:#F3F4F4"/>
		<stop  offset="0.5875" style="stop-color:#E0DFE0"/>
		<stop  offset="0.7124" style="stop-color:#B7B4B8"/>
		<stop  offset="0.8764" style="stop-color:#807B80"/>
		<stop  offset="1" style="stop-color:#D1D3D4"/>
		<stop  offset="1" style="stop-color:#A7A9AC"/>
	</linearGradient>
	<path fill="url(#SVGID_27_)" d="M298.695,41.69h15.881l-3.828,11.903c-1.256,3.935-3.359,12.708-4.119,16.303h-5.098
		c1.852-4.042,5.643-13.079,6.914-16.729l1.561-4.483h-9.607c-1.199,0-1.807,0.821-2.248,2.424h-0.301L298.695,41.69z"/>
	<g>
		<linearGradient id="SVGID_28_" gradientUnits="userSpaceOnUse" x1="289.3174" y1="43.1572" x2="289.3174" y2="75.1875">
			<stop  offset="0" style="stop-color:#E5E2DF"/>
			<stop  offset="0" style="stop-color:#DED9D6"/>
			<stop  offset="0.0616" style="stop-color:#CECAC9"/>
			<stop  offset="0.1794" style="stop-color:#A8A4A7"/>
			<stop  offset="0.264" style="stop-color:#8B878D"/>
			<stop  offset="0.5225" style="stop-color:#F3F4F4"/>
			<stop  offset="0.5875" style="stop-color:#E0DFE0"/>
			<stop  offset="0.7124" style="stop-color:#B7B4B8"/>
			<stop  offset="0.8764" style="stop-color:#807B80"/>
			<stop  offset="1" style="stop-color:#D1D3D4"/>
			<stop  offset="1" style="stop-color:#A7A9AC"/>
		</linearGradient>
		<path fill="url(#SVGID_28_)" d="M294.428,68.529h-10.223l0.01-1.161h0.807c0.701,0,1.27-0.86,1.27-1.921V45.465
			c0-1.043-0.568-1.893-1.27-1.893h-0.807l-0.01-1.162h10.225l-0.01,1.162h-0.809c-0.684,0-1.252,0.839-1.268,1.872v20.029
			c0,1.044,0.568,1.894,1.268,1.894l0.809,0.004L294.428,68.529z M285.848,67.791h6.936c-0.545-0.444-0.916-1.317-0.916-2.318
			V45.434c0.014-0.987,0.387-1.844,0.924-2.285h-6.939c0.545,0.446,0.916,1.317,0.916,2.316v19.982
			C286.768,66.46,286.396,67.343,285.848,67.791z"/>
	</g>
	<g>
		<linearGradient id="SVGID_29_" gradientUnits="userSpaceOnUse" x1="306.1953" y1="41.9736" x2="306.1953" y2="72.5715">
			<stop  offset="0" style="stop-color:#E5E2DF"/>
			<stop  offset="0" style="stop-color:#DED9D6"/>
			<stop  offset="0.0616" style="stop-color:#CECAC9"/>
			<stop  offset="0.1794" style="stop-color:#A8A4A7"/>
			<stop  offset="0.264" style="stop-color:#8B878D"/>
			<stop  offset="0.5225" style="stop-color:#F3F4F4"/>
			<stop  offset="0.5875" style="stop-color:#E0DFE0"/>
			<stop  offset="0.7124" style="stop-color:#B7B4B8"/>
			<stop  offset="0.8764" style="stop-color:#807B80"/>
			<stop  offset="1" style="stop-color:#D1D3D4"/>
			<stop  offset="1" style="stop-color:#A7A9AC"/>
		</linearGradient>
		<path fill="url(#SVGID_29_)" d="M306.76,70.249h-5.768l0.246-0.538c1.787-3.899,5.59-12.928,6.9-16.694l1.387-3.979h-9.195
			c-1.006,0-1.568,0.615-2.004,2.194l-0.064,0.229h-0.777l0.91-10.124h16.512l-3.986,12.396c-1.285,4.021-3.387,12.853-4.107,16.259
			L306.76,70.249z M301.928,69.544h4.436c0.771-3.594,2.813-12.138,4.074-16.09l3.672-11.411h-15.252l-0.721,8.04
			c0.496-1.218,1.18-1.751,2.193-1.751h10.02l-1.736,4.985C307.354,56.938,303.805,65.392,301.928,69.544z"/>
	</g>
	<linearGradient id="SVGID_30_" gradientUnits="userSpaceOnUse" x1="305.8457" y1="60.9268" x2="306.3149" y2="38.6403">
		<stop  offset="0" style="stop-color:#FFFFFF"/>
		<stop  offset="1" style="stop-color:#000000"/>
	</linearGradient>
	<path fill="url(#SVGID_30_)" d="M314.139,42.258h-15.25l-0.721,8.039c0.496-1.217,1.18-1.75,2.193-1.75h10.02l-1.736,4.983
		c-0.186,0.537-0.424,1.182-0.699,1.899h1.994c0.188-0.651,0.365-1.245,0.529-1.762L314.139,42.258z"/>
	<linearGradient id="SVGID_31_" gradientUnits="userSpaceOnUse" x1="288.9453" y1="62.5137" x2="289.4357" y2="39.2194">
		<stop  offset="0" style="stop-color:#FFFFFF"/>
		<stop  offset="1" style="stop-color:#000000"/>
	</linearGradient>
	<path fill="url(#SVGID_31_)" d="M292.818,43.374h-6.939c0.547,0.446,0.918,1.317,0.918,2.316v11.554h5.098V45.659
		C291.91,44.673,292.283,43.816,292.818,43.374z"/>
	<g>
		<g>
			
				<image overflow="visible" width="585" height="578" xlink:href="DF744C21.png"  transform="matrix(0.24 0 0 0.24 -0.3911 -4.5586)">
			</image>
		</g>
		<g>
			<path fill="#3C75BB" d="M64.176,35.744l-0.12,4.66l11.377,6.111l4.054-2.601C79.487,43.914,72.286,37.135,64.176,35.744z"/>
			<path fill="#3C75BB" d="M63.451,40.404l-0.243-7.807c0,0-10.651,1.997-17.187,11.075l6.656,3.631L63.451,40.404z"/>
			<path fill="#3C75BB" d="M52.678,47.726L41.12,42.823c0,0-3.935,12.468,1.089,23.481l10.53-6.294L52.678,47.726z"/>
			<path fill="#3C75BB" d="M63.693,85.246V66.063l-10.289-5.809l-16.46,10.287C36.944,70.541,45.901,84.643,63.693,85.246z"/>
			<path fill="#3C75BB" d="M64.359,66.184l10.711-6.627l27.597,14.615c0,0-8.171,25.781-37.31,22.604L64.359,66.184z"/>
		</g>
		<g>
			<g>
				<linearGradient id="SVGID_32_" gradientUnits="userSpaceOnUse" x1="72.3813" y1="44.875" x2="103.5648" y2="83.7739">
					<stop  offset="0" style="stop-color:#E5E2DF"/>
					<stop  offset="0" style="stop-color:#DED9D6"/>
					<stop  offset="0.0355" style="stop-color:#CDCCCA"/>
					<stop  offset="0.1037" style="stop-color:#A5A9A9"/>
					<stop  offset="0.1966" style="stop-color:#6D7678"/>
					<stop  offset="0.264" style="stop-color:#465053"/>
					<stop  offset="0.2898" style="stop-color:#545E62"/>
					<stop  offset="0.3895" style="stop-color:#899194"/>
					<stop  offset="0.4732" style="stop-color:#B6BABD"/>
					<stop  offset="0.5369" style="stop-color:#D4D5D6"/>
					<stop  offset="0.573" style="stop-color:#E0E0E0"/>
					<stop  offset="0.6313" style="stop-color:#D5D6D8"/>
					<stop  offset="0.7293" style="stop-color:#BBBEC2"/>
					<stop  offset="0.8545" style="stop-color:#92999F"/>
					<stop  offset="0.8764" style="stop-color:#8B9298"/>
					<stop  offset="1" style="stop-color:#D1D3D4"/>
					<stop  offset="1" style="stop-color:#A7A9AC"/>
				</linearGradient>
				<path fill="url(#SVGID_32_)" d="M63.772,35.491l-0.121,4.66l11.377,6.112l2.216-1.422C77.245,44.84,71.882,36.882,63.772,35.491
					z"/>
				<linearGradient id="SVGID_33_" gradientUnits="userSpaceOnUse" x1="64.0015" y1="51.5894" x2="95.1808" y2="90.4831">
					<stop  offset="0" style="stop-color:#E5E2DF"/>
					<stop  offset="0" style="stop-color:#DED9D6"/>
					<stop  offset="0.0355" style="stop-color:#CDCCCA"/>
					<stop  offset="0.1037" style="stop-color:#A5A9A9"/>
					<stop  offset="0.1966" style="stop-color:#6D7678"/>
					<stop  offset="0.264" style="stop-color:#465053"/>
					<stop  offset="0.2898" style="stop-color:#545E62"/>
					<stop  offset="0.3895" style="stop-color:#899194"/>
					<stop  offset="0.4732" style="stop-color:#B6BABD"/>
					<stop  offset="0.5369" style="stop-color:#D4D5D6"/>
					<stop  offset="0.573" style="stop-color:#E0E0E0"/>
					<stop  offset="0.6313" style="stop-color:#D5D6D8"/>
					<stop  offset="0.7293" style="stop-color:#BBBEC2"/>
					<stop  offset="0.8545" style="stop-color:#92999F"/>
					<stop  offset="0.8764" style="stop-color:#8B9298"/>
					<stop  offset="1" style="stop-color:#D1D3D4"/>
					<stop  offset="1" style="stop-color:#A7A9AC"/>
				</linearGradient>
				<path fill="url(#SVGID_33_)" d="M63.046,40.15l-0.136-4.687c0,0-10.757-1.124-17.293,7.956l6.657,3.63L63.046,40.15z"/>
				<linearGradient id="SVGID_34_" gradientUnits="userSpaceOnUse" x1="51.1523" y1="61.8936" x2="82.3335" y2="100.7897">
					<stop  offset="0" style="stop-color:#E5E2DF"/>
					<stop  offset="0" style="stop-color:#DED9D6"/>
					<stop  offset="0.0355" style="stop-color:#CDCCCA"/>
					<stop  offset="0.1037" style="stop-color:#A5A9A9"/>
					<stop  offset="0.1966" style="stop-color:#6D7678"/>
					<stop  offset="0.264" style="stop-color:#465053"/>
					<stop  offset="0.2898" style="stop-color:#545E62"/>
					<stop  offset="0.3895" style="stop-color:#899194"/>
					<stop  offset="0.4732" style="stop-color:#B6BABD"/>
					<stop  offset="0.5369" style="stop-color:#D4D5D6"/>
					<stop  offset="0.573" style="stop-color:#E0E0E0"/>
					<stop  offset="0.6313" style="stop-color:#D5D6D8"/>
					<stop  offset="0.7293" style="stop-color:#BBBEC2"/>
					<stop  offset="0.8545" style="stop-color:#92999F"/>
					<stop  offset="0.8764" style="stop-color:#8B9298"/>
					<stop  offset="1" style="stop-color:#D1D3D4"/>
					<stop  offset="1" style="stop-color:#A7A9AC"/>
				</linearGradient>
				<path fill="url(#SVGID_34_)" d="M52.274,47.473l-7.313-3.101c0,0-8.18,10.667-3.157,21.68l10.53-6.294L52.274,47.473z"/>
				<linearGradient id="SVGID_35_" gradientUnits="userSpaceOnUse" x1="49.5762" y1="63.1543" x2="80.7574" y2="102.0505">
					<stop  offset="0" style="stop-color:#E5E2DF"/>
					<stop  offset="0" style="stop-color:#DED9D6"/>
					<stop  offset="0.0355" style="stop-color:#CDCCCA"/>
					<stop  offset="0.1037" style="stop-color:#A5A9A9"/>
					<stop  offset="0.1966" style="stop-color:#6D7678"/>
					<stop  offset="0.264" style="stop-color:#465053"/>
					<stop  offset="0.2898" style="stop-color:#545E62"/>
					<stop  offset="0.3895" style="stop-color:#899194"/>
					<stop  offset="0.4732" style="stop-color:#B6BABD"/>
					<stop  offset="0.5369" style="stop-color:#D4D5D6"/>
					<stop  offset="0.573" style="stop-color:#E0E0E0"/>
					<stop  offset="0.6313" style="stop-color:#D5D6D8"/>
					<stop  offset="0.7293" style="stop-color:#BBBEC2"/>
					<stop  offset="0.8545" style="stop-color:#92999F"/>
					<stop  offset="0.8764" style="stop-color:#8B9298"/>
					<stop  offset="1" style="stop-color:#D1D3D4"/>
					<stop  offset="1" style="stop-color:#A7A9AC"/>
				</linearGradient>
				<path fill="url(#SVGID_35_)" d="M63.288,84.993V65.809L53,60.001l-10.755,6.721C42.245,66.722,47.714,80.826,63.288,84.993z"/>
				<linearGradient id="SVGID_36_" gradientUnits="userSpaceOnUse" x1="62.127" y1="53.0933" x2="93.3116" y2="91.9937">
					<stop  offset="0" style="stop-color:#E5E2DF"/>
					<stop  offset="0" style="stop-color:#DED9D6"/>
					<stop  offset="0.0355" style="stop-color:#CDCCCA"/>
					<stop  offset="0.1037" style="stop-color:#A5A9A9"/>
					<stop  offset="0.1966" style="stop-color:#6D7678"/>
					<stop  offset="0.264" style="stop-color:#465053"/>
					<stop  offset="0.2898" style="stop-color:#545E62"/>
					<stop  offset="0.3895" style="stop-color:#899194"/>
					<stop  offset="0.4732" style="stop-color:#B6BABD"/>
					<stop  offset="0.5369" style="stop-color:#D4D5D6"/>
					<stop  offset="0.573" style="stop-color:#E0E0E0"/>
					<stop  offset="0.6313" style="stop-color:#D5D6D8"/>
					<stop  offset="0.7293" style="stop-color:#BBBEC2"/>
					<stop  offset="0.8545" style="stop-color:#92999F"/>
					<stop  offset="0.8764" style="stop-color:#8B9298"/>
					<stop  offset="1" style="stop-color:#D1D3D4"/>
					<stop  offset="1" style="stop-color:#A7A9AC"/>
				</linearGradient>
				<path fill="url(#SVGID_36_)" d="M74.666,59.304l-10.712,6.627l0.635,19.359c0,0,20.788,6.149,37.582-11.37L74.666,59.304z"/>
			</g>
			<g>
				<linearGradient id="SVGID_37_" gradientUnits="userSpaceOnUse" x1="72.8643" y1="45.1919" x2="111.4448" y2="88.9165">
					<stop  offset="0" style="stop-color:#E5E2DF"/>
					<stop  offset="0" style="stop-color:#DED9D6"/>
					<stop  offset="0.0355" style="stop-color:#CDCCCA"/>
					<stop  offset="0.1037" style="stop-color:#A5A9A9"/>
					<stop  offset="0.1966" style="stop-color:#6D7678"/>
					<stop  offset="0.264" style="stop-color:#465053"/>
					<stop  offset="0.2898" style="stop-color:#545E62"/>
					<stop  offset="0.3895" style="stop-color:#899194"/>
					<stop  offset="0.4732" style="stop-color:#B6BABD"/>
					<stop  offset="0.5369" style="stop-color:#D4D5D6"/>
					<stop  offset="0.573" style="stop-color:#E0E0E0"/>
					<stop  offset="0.6313" style="stop-color:#D5D6D8"/>
					<stop  offset="0.7293" style="stop-color:#BBBEC2"/>
					<stop  offset="0.8545" style="stop-color:#92999F"/>
					<stop  offset="0.8764" style="stop-color:#8B9298"/>
					<stop  offset="1" style="stop-color:#D1D3D4"/>
					<stop  offset="1" style="stop-color:#A7A9AC"/>
				</linearGradient>
				<path fill="url(#SVGID_37_)" d="M64.496,36.367l-0.121,4.661l11.377,6.112l2.216-1.422
					C77.969,45.718,72.606,37.76,64.496,36.367z"/>
				<linearGradient id="SVGID_38_" gradientUnits="userSpaceOnUse" x1="65.229" y1="51.9258" x2="103.8013" y2="95.641">
					<stop  offset="0" style="stop-color:#E5E2DF"/>
					<stop  offset="0" style="stop-color:#DED9D6"/>
					<stop  offset="0.0355" style="stop-color:#CDCCCA"/>
					<stop  offset="0.1037" style="stop-color:#A5A9A9"/>
					<stop  offset="0.1966" style="stop-color:#6D7678"/>
					<stop  offset="0.264" style="stop-color:#465053"/>
					<stop  offset="0.2898" style="stop-color:#545E62"/>
					<stop  offset="0.3895" style="stop-color:#899194"/>
					<stop  offset="0.4732" style="stop-color:#B6BABD"/>
					<stop  offset="0.5369" style="stop-color:#D4D5D6"/>
					<stop  offset="0.573" style="stop-color:#E0E0E0"/>
					<stop  offset="0.6313" style="stop-color:#D5D6D8"/>
					<stop  offset="0.7293" style="stop-color:#BBBEC2"/>
					<stop  offset="0.8545" style="stop-color:#92999F"/>
					<stop  offset="0.8764" style="stop-color:#8B9298"/>
					<stop  offset="1" style="stop-color:#D1D3D4"/>
					<stop  offset="1" style="stop-color:#A7A9AC"/>
				</linearGradient>
				<path fill="url(#SVGID_38_)" d="M63.77,41.028l-0.136-4.687c0,0-10.757-1.124-17.293,7.954l6.658,3.632L63.77,41.028z"/>
				<linearGradient id="SVGID_39_" gradientUnits="userSpaceOnUse" x1="52.5762" y1="63.0938" x2="91.1586" y2="106.8205">
					<stop  offset="0" style="stop-color:#E5E2DF"/>
					<stop  offset="0" style="stop-color:#DED9D6"/>
					<stop  offset="0.0355" style="stop-color:#CDCCCA"/>
					<stop  offset="0.1037" style="stop-color:#A5A9A9"/>
					<stop  offset="0.1966" style="stop-color:#6D7678"/>
					<stop  offset="0.264" style="stop-color:#465053"/>
					<stop  offset="0.2898" style="stop-color:#545E62"/>
					<stop  offset="0.3895" style="stop-color:#899194"/>
					<stop  offset="0.4732" style="stop-color:#B6BABD"/>
					<stop  offset="0.5369" style="stop-color:#D4D5D6"/>
					<stop  offset="0.573" style="stop-color:#E0E0E0"/>
					<stop  offset="0.6313" style="stop-color:#D5D6D8"/>
					<stop  offset="0.7293" style="stop-color:#BBBEC2"/>
					<stop  offset="0.8545" style="stop-color:#92999F"/>
					<stop  offset="0.8764" style="stop-color:#8B9298"/>
					<stop  offset="1" style="stop-color:#D1D3D4"/>
					<stop  offset="1" style="stop-color:#A7A9AC"/>
				</linearGradient>
				<path fill="url(#SVGID_39_)" d="M52.999,48.35l-7.313-3.102c0,0-8.18,10.668-3.158,21.681l10.531-6.293L52.999,48.35z"/>
				<linearGradient id="SVGID_40_" gradientUnits="userSpaceOnUse" x1="50.5098" y1="64.916" x2="89.0865" y2="108.6363">
					<stop  offset="0" style="stop-color:#E5E2DF"/>
					<stop  offset="0" style="stop-color:#DED9D6"/>
					<stop  offset="0.0355" style="stop-color:#CDCCCA"/>
					<stop  offset="0.1037" style="stop-color:#A5A9A9"/>
					<stop  offset="0.1966" style="stop-color:#6D7678"/>
					<stop  offset="0.264" style="stop-color:#465053"/>
					<stop  offset="0.2898" style="stop-color:#545E62"/>
					<stop  offset="0.3895" style="stop-color:#899194"/>
					<stop  offset="0.4732" style="stop-color:#B6BABD"/>
					<stop  offset="0.5369" style="stop-color:#D4D5D6"/>
					<stop  offset="0.573" style="stop-color:#E0E0E0"/>
					<stop  offset="0.6313" style="stop-color:#D5D6D8"/>
					<stop  offset="0.7293" style="stop-color:#BBBEC2"/>
					<stop  offset="0.8545" style="stop-color:#92999F"/>
					<stop  offset="0.8764" style="stop-color:#8B9298"/>
					<stop  offset="1" style="stop-color:#D1D3D4"/>
					<stop  offset="1" style="stop-color:#A7A9AC"/>
				</linearGradient>
				<path fill="url(#SVGID_40_)" d="M64.012,85.871V66.688l-10.288-5.81L42.968,67.6C42.968,67.6,48.438,81.701,64.012,85.871z"/>
				<linearGradient id="SVGID_41_" gradientUnits="userSpaceOnUse" x1="61.6753" y1="55.0625" x2="100.253" y2="98.7839">
					<stop  offset="0" style="stop-color:#E5E2DF"/>
					<stop  offset="0" style="stop-color:#DED9D6"/>
					<stop  offset="0.0355" style="stop-color:#CDCCCA"/>
					<stop  offset="0.1037" style="stop-color:#A5A9A9"/>
					<stop  offset="0.1966" style="stop-color:#6D7678"/>
					<stop  offset="0.264" style="stop-color:#465053"/>
					<stop  offset="0.2898" style="stop-color:#545E62"/>
					<stop  offset="0.3895" style="stop-color:#899194"/>
					<stop  offset="0.4732" style="stop-color:#B6BABD"/>
					<stop  offset="0.5369" style="stop-color:#D4D5D6"/>
					<stop  offset="0.573" style="stop-color:#E0E0E0"/>
					<stop  offset="0.6313" style="stop-color:#D5D6D8"/>
					<stop  offset="0.7293" style="stop-color:#BBBEC2"/>
					<stop  offset="0.8545" style="stop-color:#92999F"/>
					<stop  offset="0.8764" style="stop-color:#8B9298"/>
					<stop  offset="1" style="stop-color:#D1D3D4"/>
					<stop  offset="1" style="stop-color:#A7A9AC"/>
				</linearGradient>
				<path fill="url(#SVGID_41_)" d="M75.389,60.181l-10.711,6.627l0.635,19.358c0,0,20.787,6.15,37.582-11.369L75.389,60.181z"/>
			</g>
			<g>
				<radialGradient id="SVGID_42_" cx="63.6328" cy="53.4297" r="58.5074" gradientUnits="userSpaceOnUse">
					<stop  offset="0" style="stop-color:#E5E2DF"/>
					<stop  offset="0" style="stop-color:#DED9D6"/>
					<stop  offset="0.0616" style="stop-color:#CECAC9"/>
					<stop  offset="0.1794" style="stop-color:#A8A4A7"/>
					<stop  offset="0.264" style="stop-color:#8B878D"/>
					<stop  offset="0.5225" style="stop-color:#F3F4F4"/>
					<stop  offset="0.5875" style="stop-color:#E0DFE0"/>
					<stop  offset="0.7124" style="stop-color:#B7B4B8"/>
					<stop  offset="0.8764" style="stop-color:#807B80"/>
					<stop  offset="1" style="stop-color:#D1D3D4"/>
					<stop  offset="1" style="stop-color:#A7A9AC"/>
				</radialGradient>
				<path fill="url(#SVGID_42_)" d="M65.43,36.843l-0.075,2.907l10.354,5.563l0.868-0.556C75.104,42.888,70.995,38.268,65.43,36.843
					z"/>
				<radialGradient id="SVGID_43_" cx="63.6328" cy="53.4302" r="58.5066" gradientUnits="userSpaceOnUse">
					<stop  offset="0" style="stop-color:#E5E2DF"/>
					<stop  offset="0" style="stop-color:#DED9D6"/>
					<stop  offset="0.0616" style="stop-color:#CECAC9"/>
					<stop  offset="0.1794" style="stop-color:#A8A4A7"/>
					<stop  offset="0.264" style="stop-color:#8B878D"/>
					<stop  offset="0.5225" style="stop-color:#F3F4F4"/>
					<stop  offset="0.5875" style="stop-color:#E0DFE0"/>
					<stop  offset="0.7124" style="stop-color:#B7B4B8"/>
					<stop  offset="0.8764" style="stop-color:#807B80"/>
					<stop  offset="1" style="stop-color:#D1D3D4"/>
					<stop  offset="1" style="stop-color:#A7A9AC"/>
				</radialGradient>
				<path fill="url(#SVGID_43_)" d="M62.696,36.554c-0.069-0.001-0.141-0.002-0.216-0.002c-2.842,0-9.771,0.677-14.689,6.728
					l5.167,2.818l9.832-6.297L62.696,36.554z"/>
				<radialGradient id="SVGID_44_" cx="63.6318" cy="53.4297" r="58.5035" gradientUnits="userSpaceOnUse">
					<stop  offset="0" style="stop-color:#E5E2DF"/>
					<stop  offset="0" style="stop-color:#DED9D6"/>
					<stop  offset="0.0616" style="stop-color:#CECAC9"/>
					<stop  offset="0.1794" style="stop-color:#A8A4A7"/>
					<stop  offset="0.264" style="stop-color:#8B878D"/>
					<stop  offset="0.5225" style="stop-color:#F3F4F4"/>
					<stop  offset="0.5875" style="stop-color:#E0DFE0"/>
					<stop  offset="0.7124" style="stop-color:#B7B4B8"/>
					<stop  offset="0.8764" style="stop-color:#807B80"/>
					<stop  offset="1" style="stop-color:#D1D3D4"/>
					<stop  offset="1" style="stop-color:#A7A9AC"/>
				</radialGradient>
				<path fill="url(#SVGID_44_)" d="M52.037,48.281l-6.007-2.548c-1.499,2.266-6.303,10.533-3.042,19.089l9.103-5.441L52.037,48.281
					z"/>
				<radialGradient id="SVGID_45_" cx="63.6338" cy="53.4302" r="58.5025" gradientUnits="userSpaceOnUse">
					<stop  offset="0" style="stop-color:#E5E2DF"/>
					<stop  offset="0" style="stop-color:#DED9D6"/>
					<stop  offset="0.0616" style="stop-color:#CECAC9"/>
					<stop  offset="0.1794" style="stop-color:#A8A4A7"/>
					<stop  offset="0.264" style="stop-color:#8B878D"/>
					<stop  offset="0.5225" style="stop-color:#F3F4F4"/>
					<stop  offset="0.5875" style="stop-color:#E0DFE0"/>
					<stop  offset="0.7124" style="stop-color:#B7B4B8"/>
					<stop  offset="0.8764" style="stop-color:#807B80"/>
					<stop  offset="1" style="stop-color:#D1D3D4"/>
					<stop  offset="1" style="stop-color:#A7A9AC"/>
				</radialGradient>
				<path fill="url(#SVGID_45_)" d="M44.189,67.264c1.318,2.788,6.809,12.843,18.859,16.614V66.541l-9.299-5.252L44.189,67.264z"/>
				<radialGradient id="SVGID_46_" cx="63.6338" cy="53.4307" r="58.503" gradientUnits="userSpaceOnUse">
					<stop  offset="0" style="stop-color:#E5E2DF"/>
					<stop  offset="0" style="stop-color:#DED9D6"/>
					<stop  offset="0.0616" style="stop-color:#CECAC9"/>
					<stop  offset="0.1794" style="stop-color:#A8A4A7"/>
					<stop  offset="0.264" style="stop-color:#8B878D"/>
					<stop  offset="0.5225" style="stop-color:#F3F4F4"/>
					<stop  offset="0.5875" style="stop-color:#E0DFE0"/>
					<stop  offset="0.7124" style="stop-color:#B7B4B8"/>
					<stop  offset="0.8764" style="stop-color:#807B80"/>
					<stop  offset="1" style="stop-color:#D1D3D4"/>
					<stop  offset="1" style="stop-color:#A7A9AC"/>
				</radialGradient>
				<path fill="url(#SVGID_46_)" d="M74.186,85.538c7.248,0,17.735-1.973,27.114-11.208L75.426,60.584l-9.765,6.04L66.253,84.7
					C67.494,84.984,70.38,85.538,74.186,85.538z"/>
			</g>
		</g>
	</g>
	<linearGradient id="SVGID_47_" gradientUnits="userSpaceOnUse" x1="55.8013" y1="53.7197" x2="72.2871" y2="53.7197">
		<stop  offset="0" style="stop-color:#E5E2DF"/>
		<stop  offset="0" style="stop-color:#DED9D6"/>
		<stop  offset="0.0355" style="stop-color:#CDCCCA"/>
		<stop  offset="0.1037" style="stop-color:#A5A9A9"/>
		<stop  offset="0.1966" style="stop-color:#6D7678"/>
		<stop  offset="0.264" style="stop-color:#465053"/>
		<stop  offset="0.2898" style="stop-color:#545E62"/>
		<stop  offset="0.3895" style="stop-color:#899194"/>
		<stop  offset="0.4732" style="stop-color:#B6BABD"/>
		<stop  offset="0.5369" style="stop-color:#D4D5D6"/>
		<stop  offset="0.573" style="stop-color:#E0E0E0"/>
		<stop  offset="0.6313" style="stop-color:#D5D6D8"/>
		<stop  offset="0.7293" style="stop-color:#BBBEC2"/>
		<stop  offset="0.8545" style="stop-color:#92999F"/>
		<stop  offset="0.8764" style="stop-color:#8B9298"/>
		<stop  offset="1" style="stop-color:#D1D3D4"/>
		<stop  offset="1" style="stop-color:#A7A9AC"/>
	</linearGradient>
	<path fill="none" stroke="url(#SVGID_47_)" stroke-miterlimit="10" d="M71.787,51.492c-0.563-0.576-1.18-1.1-1.819-1.574
		c-0.172-1.223-0.341-2.024-0.341-2.024l-3.284-1.891c-0.745,0.195-1.5,0.476-2.244,0.807c-1.316-0.493-2.211-0.715-2.211-0.715
		L58.47,48.12c-0.162,0.808-0.275,1.618-0.351,2.414c-1.115,0.865-1.81,1.5-1.81,1.5l0.136,3.869
		c0.606,0.534,1.205,1.016,1.79,1.453c0.154,1.299,0.325,2.102,0.325,2.102l3.42,1.979c0.768-0.201,1.515-0.462,2.231-0.76
		c1.296,0.486,2.088,0.625,2.088,0.625l3.375-2.024c0.236-0.656,0.396-1.393,0.497-2.167c1.022-0.806,1.617-1.388,1.617-1.388
		V51.492z"/>
	<linearGradient id="SVGID_48_" gradientUnits="userSpaceOnUse" x1="55.7734" y1="53.6172" x2="70.8452" y2="53.6172">
		<stop  offset="0" style="stop-color:#E5E2DF"/>
		<stop  offset="0" style="stop-color:#DED9D6"/>
		<stop  offset="0.0355" style="stop-color:#CDCCCA"/>
		<stop  offset="0.1037" style="stop-color:#A5A9A9"/>
		<stop  offset="0.1966" style="stop-color:#6D7678"/>
		<stop  offset="0.264" style="stop-color:#465053"/>
		<stop  offset="0.2898" style="stop-color:#545E62"/>
		<stop  offset="0.3895" style="stop-color:#899194"/>
		<stop  offset="0.4732" style="stop-color:#B6BABD"/>
		<stop  offset="0.5369" style="stop-color:#D4D5D6"/>
		<stop  offset="0.573" style="stop-color:#E0E0E0"/>
		<stop  offset="0.6313" style="stop-color:#D5D6D8"/>
		<stop  offset="0.7293" style="stop-color:#BBBEC2"/>
		<stop  offset="0.8545" style="stop-color:#92999F"/>
		<stop  offset="0.8764" style="stop-color:#8B9298"/>
		<stop  offset="1" style="stop-color:#D1D3D4"/>
		<stop  offset="1" style="stop-color:#A7A9AC"/>
	</linearGradient>
	<path fill="none" stroke="url(#SVGID_48_)" stroke-miterlimit="10" d="M56.279,51.997c0,0,5.24-4.787,10.073-6.053l3.297,1.898
		c0,0,1.536,7.271,0.044,11.427l-3.387,2.032c0,0-4.688-0.814-9.927-5.423L56.279,51.997z"/>
	<linearGradient id="SVGID_49_" gradientUnits="userSpaceOnUse" x1="57.4458" y1="53.7808" x2="72.2949" y2="53.7808">
		<stop  offset="0" style="stop-color:#E5E2DF"/>
		<stop  offset="0" style="stop-color:#DED9D6"/>
		<stop  offset="0.0355" style="stop-color:#CDCCCA"/>
		<stop  offset="0.1037" style="stop-color:#A5A9A9"/>
		<stop  offset="0.1966" style="stop-color:#6D7678"/>
		<stop  offset="0.264" style="stop-color:#465053"/>
		<stop  offset="0.2898" style="stop-color:#545E62"/>
		<stop  offset="0.3895" style="stop-color:#899194"/>
		<stop  offset="0.4732" style="stop-color:#B6BABD"/>
		<stop  offset="0.5369" style="stop-color:#D4D5D6"/>
		<stop  offset="0.573" style="stop-color:#E0E0E0"/>
		<stop  offset="0.6313" style="stop-color:#D5D6D8"/>
		<stop  offset="0.7293" style="stop-color:#BBBEC2"/>
		<stop  offset="0.8545" style="stop-color:#92999F"/>
		<stop  offset="0.8764" style="stop-color:#8B9298"/>
		<stop  offset="1" style="stop-color:#D1D3D4"/>
		<stop  offset="1" style="stop-color:#A7A9AC"/>
	</linearGradient>
	<path fill="none" stroke="url(#SVGID_49_)" stroke-miterlimit="10" d="M58.424,48.158l3.433-2.033c0,0,6.144,1.536,9.938,5.419
		v4.246c0,0-4.359,4.201-9.824,5.646l-3.455-1.896C58.516,59.54,57.296,53.803,58.424,48.158z"/>
	<g>
		<radialGradient id="SVGID_50_" cx="64.228" cy="53.8438" r="12.1918" gradientUnits="userSpaceOnUse">
			<stop  offset="0" style="stop-color:#E5E2DF"/>
			<stop  offset="0" style="stop-color:#DED9D6"/>
			<stop  offset="0.0616" style="stop-color:#CECAC9"/>
			<stop  offset="0.1794" style="stop-color:#A8A4A7"/>
			<stop  offset="0.264" style="stop-color:#8B878D"/>
			<stop  offset="0.5225" style="stop-color:#F3F4F4"/>
			<stop  offset="0.5875" style="stop-color:#E0DFE0"/>
			<stop  offset="0.7124" style="stop-color:#B7B4B8"/>
			<stop  offset="0.8764" style="stop-color:#807B80"/>
			<stop  offset="1" style="stop-color:#D1D3D4"/>
			<stop  offset="1" style="stop-color:#A7A9AC"/>
		</radialGradient>
		<path fill="url(#SVGID_50_)" d="M64.681,49.331c0,0-3.704,1.13-4.291,4.337c0,0,2.438,1.627,5.33,1.4c0,0-3.207-1.175-3.794-2.123
			C61.926,52.945,62.288,51.003,64.681,49.331z"/>
		<radialGradient id="SVGID_51_" cx="64.228" cy="53.8438" r="12.1908" gradientUnits="userSpaceOnUse">
			<stop  offset="0" style="stop-color:#E5E2DF"/>
			<stop  offset="0" style="stop-color:#DED9D6"/>
			<stop  offset="0.0616" style="stop-color:#CECAC9"/>
			<stop  offset="0.1794" style="stop-color:#A8A4A7"/>
			<stop  offset="0.264" style="stop-color:#8B878D"/>
			<stop  offset="0.5225" style="stop-color:#F3F4F4"/>
			<stop  offset="0.5875" style="stop-color:#E0DFE0"/>
			<stop  offset="0.7124" style="stop-color:#B7B4B8"/>
			<stop  offset="0.8764" style="stop-color:#807B80"/>
			<stop  offset="1" style="stop-color:#D1D3D4"/>
			<stop  offset="1" style="stop-color:#A7A9AC"/>
		</radialGradient>
		<path fill="url(#SVGID_51_)" d="M62.852,53.396c0,0,2.167-1.264,5.059-0.27c0,0-0.136,3.613-3.524,5.374
			c0,0,1.943-1.626,2.078-4.336C66.464,54.165,64.026,52.9,62.852,53.396z"/>
	</g>
	<g>
		<radialGradient id="SVGID_52_" cx="64.0591" cy="53.5811" r="20.0623" gradientUnits="userSpaceOnUse">
			<stop  offset="0" style="stop-color:#E5E2DF"/>
			<stop  offset="0" style="stop-color:#DED9D6"/>
			<stop  offset="0.0616" style="stop-color:#CECAC9"/>
			<stop  offset="0.1794" style="stop-color:#A8A4A7"/>
			<stop  offset="0.264" style="stop-color:#8B878D"/>
			<stop  offset="0.5225" style="stop-color:#F3F4F4"/>
			<stop  offset="0.5875" style="stop-color:#E0DFE0"/>
			<stop  offset="0.7124" style="stop-color:#B7B4B8"/>
			<stop  offset="0.8764" style="stop-color:#807B80"/>
			<stop  offset="1" style="stop-color:#D1D3D4"/>
			<stop  offset="1" style="stop-color:#A7A9AC"/>
		</radialGradient>
		<path fill="url(#SVGID_52_)" d="M64.681,49.331c0,0-3.704,1.13-4.291,4.337c0,0,2.438,1.627,5.33,1.4c0,0-3.207-1.175-3.794-2.123
			C61.926,52.945,62.288,51.003,64.681,49.331z"/>
		<radialGradient id="SVGID_53_" cx="64.0591" cy="53.5811" r="20.0609" gradientUnits="userSpaceOnUse">
			<stop  offset="0" style="stop-color:#E5E2DF"/>
			<stop  offset="0" style="stop-color:#DED9D6"/>
			<stop  offset="0.0616" style="stop-color:#CECAC9"/>
			<stop  offset="0.1794" style="stop-color:#A8A4A7"/>
			<stop  offset="0.264" style="stop-color:#8B878D"/>
			<stop  offset="0.5225" style="stop-color:#F3F4F4"/>
			<stop  offset="0.5875" style="stop-color:#E0DFE0"/>
			<stop  offset="0.7124" style="stop-color:#B7B4B8"/>
			<stop  offset="0.8764" style="stop-color:#807B80"/>
			<stop  offset="1" style="stop-color:#D1D3D4"/>
			<stop  offset="1" style="stop-color:#A7A9AC"/>
		</radialGradient>
		<path fill="url(#SVGID_53_)" d="M62.852,53.396c0,0,2.167-1.264,5.059-0.27c0,0-0.136,3.613-3.524,5.374
			c0,0,1.943-1.626,2.078-4.336C66.464,54.165,64.026,52.9,62.852,53.396z"/>
	</g>
	<g>
		<g>
			<path fill="#FFFFFF" d="M104.044,31.843l-2.051-4.57l-0.422-0.984v3.176v2.379h-1.313v-7.658h1.77l2.092,4.6l0.369,0.896V26.3
				v-2.115h1.313v7.658H104.044z"/>
			<path fill="#FFFFFF" d="M107.185,25.362v-1.178h4.84v1.178h-1.688v5.291h1.688v1.189h-4.84v-1.189h1.688v-5.291H107.185z"/>
			<path fill="#FFFFFF" d="M116.941,25.386v6.457h-1.477v-6.457h-2.098v-1.201h5.672v1.201H116.941z"/>
			<path fill="#FFFFFF" d="M132.205,26.622c0,0.398-0.066,0.767-0.199,1.104s-0.33,0.63-0.592,0.876s-0.588,0.438-0.979,0.574
				s-0.844,0.205-1.359,0.205h-0.732v2.461h-1.453v-7.658h2.244c0.496,0,0.935,0.054,1.315,0.161s0.701,0.265,0.961,0.472
				s0.457,0.462,0.592,0.765S132.205,26.231,132.205,26.622z M130.693,26.722c0-0.203-0.032-0.388-0.097-0.554
				s-0.162-0.308-0.293-0.425s-0.296-0.207-0.495-0.27s-0.436-0.094-0.709-0.094h-0.756v2.807h0.803c0.25,0,0.471-0.034,0.662-0.103
				s0.353-0.167,0.483-0.296s0.23-0.283,0.299-0.463S130.693,26.944,130.693,26.722z"/>
			<path fill="#FFFFFF" d="M134.929,25.89v3.879c0,0.324,0.061,0.569,0.182,0.735s0.305,0.249,0.551,0.249
				c0.238,0,0.468-0.099,0.688-0.296s0.454-0.464,0.7-0.8V25.89h1.43v5.953h-1.236l-0.035-0.879
				c-0.125,0.152-0.252,0.291-0.381,0.416s-0.269,0.231-0.419,0.319s-0.314,0.156-0.492,0.205s-0.374,0.073-0.589,0.073
				c-0.305,0-0.571-0.05-0.8-0.149s-0.419-0.241-0.571-0.425s-0.267-0.403-0.343-0.659s-0.114-0.542-0.114-0.858V25.89H134.929z"/>
			<path fill="#FFFFFF" d="M143.853,31.843l-0.035-0.879c-0.125,0.152-0.254,0.291-0.387,0.416s-0.275,0.231-0.428,0.319
				s-0.315,0.156-0.489,0.205s-0.366,0.073-0.577,0.073c-0.352,0-0.664-0.07-0.938-0.211s-0.503-0.341-0.688-0.601
				s-0.327-0.575-0.425-0.946s-0.146-0.785-0.146-1.242c0-0.547,0.077-1.021,0.231-1.421s0.368-0.732,0.642-0.996
				s0.598-0.459,0.973-0.586s0.783-0.19,1.225-0.19c0.148,0,0.298,0.01,0.448,0.029s0.284,0.045,0.401,0.076v-2.326h1.43v8.279
				H143.853z M141.24,28.913c0,0.328,0.022,0.608,0.067,0.841s0.111,0.423,0.199,0.571s0.196,0.257,0.325,0.325
				s0.275,0.103,0.439,0.103c0.242,0,0.473-0.098,0.691-0.293s0.451-0.463,0.697-0.803v-2.602c-0.113-0.043-0.253-0.078-0.419-0.105
				s-0.333-0.041-0.501-0.041c-0.23,0-0.438,0.047-0.621,0.141s-0.341,0.227-0.472,0.398s-0.231,0.382-0.302,0.63
				S141.24,28.604,141.24,28.913z"/>
			<path fill="#FFFFFF" d="M148.125,25.89v3.879c0,0.324,0.061,0.569,0.182,0.735s0.305,0.249,0.551,0.249
				c0.238,0,0.468-0.099,0.688-0.296s0.454-0.464,0.7-0.8V25.89h1.43v5.953h-1.236l-0.035-0.879
				c-0.125,0.152-0.252,0.291-0.381,0.416s-0.269,0.231-0.419,0.319s-0.314,0.156-0.492,0.205s-0.374,0.073-0.589,0.073
				c-0.305,0-0.571-0.05-0.8-0.149s-0.419-0.241-0.571-0.425s-0.267-0.403-0.343-0.659s-0.114-0.542-0.114-0.858V25.89H148.125z"/>
			<path fill="#FFFFFF" d="M158.121,31.614c-0.281,0.113-0.572,0.197-0.873,0.252s-0.615,0.082-0.943,0.082
				c-0.473,0-0.896-0.064-1.271-0.193s-0.693-0.32-0.955-0.574s-0.462-0.568-0.601-0.943s-0.208-0.809-0.208-1.301
				c0-0.477,0.075-0.908,0.226-1.295s0.362-0.717,0.636-0.99s0.603-0.484,0.987-0.633s0.813-0.223,1.286-0.223
				c0.387,0,0.712,0.021,0.976,0.062s0.501,0.093,0.712,0.155v1.389c-0.242-0.121-0.505-0.215-0.788-0.281s-0.552-0.1-0.806-0.1
				c-0.266,0-0.504,0.045-0.715,0.135s-0.389,0.215-0.533,0.375s-0.255,0.354-0.331,0.583s-0.114,0.479-0.114,0.753
				c0,0.285,0.041,0.541,0.123,0.768s0.198,0.419,0.349,0.577s0.331,0.279,0.542,0.363s0.445,0.126,0.703,0.126
				c0.125,0,0.257-0.009,0.396-0.026s0.277-0.043,0.416-0.076s0.275-0.071,0.41-0.114s0.261-0.09,0.378-0.141V31.614z"/>
			<path fill="#FFFFFF" d="M163.453,31.843v-3.879c0-0.652-0.242-0.979-0.727-0.979c-0.242,0-0.474,0.098-0.694,0.293
				s-0.454,0.461-0.7,0.797v3.768h-1.43v-8.279h1.43v2.039l-0.07,1.078c0.121-0.145,0.244-0.274,0.369-0.39s0.26-0.212,0.404-0.29
				s0.301-0.138,0.469-0.179s0.354-0.062,0.557-0.062c0.305,0,0.57,0.05,0.797,0.149s0.416,0.24,0.568,0.422s0.267,0.4,0.343,0.656
				s0.114,0.542,0.114,0.858v3.996H163.453z"/>
			<path fill="#FFFFFF" d="M171.686,28.409c0,0.098-0.004,0.225-0.01,0.381s-0.014,0.303-0.025,0.439h-3.915
				c0,0.262,0.04,0.492,0.12,0.691s0.193,0.366,0.339,0.501s0.322,0.237,0.527,0.308s0.434,0.105,0.684,0.105
				c0.289,0,0.598-0.022,0.928-0.067s0.674-0.118,1.029-0.22v1.137c-0.152,0.043-0.318,0.082-0.498,0.117s-0.363,0.066-0.551,0.094
				s-0.377,0.048-0.568,0.062s-0.377,0.021-0.557,0.021c-0.453,0-0.859-0.064-1.219-0.193c-0.359-0.129-0.664-0.319-0.914-0.571
				s-0.441-0.563-0.574-0.935s-0.199-0.801-0.199-1.289c0-0.484,0.066-0.925,0.199-1.321s0.32-0.736,0.563-1.02
				s0.536-0.502,0.882-0.656c0.345-0.154,0.732-0.231,1.158-0.231c0.422,0,0.795,0.065,1.119,0.196s0.596,0.313,0.814,0.548
				s0.385,0.514,0.498,0.838S171.686,28.022,171.686,28.409z M170.232,28.204c0.004-0.234-0.025-0.438-0.088-0.612
				s-0.148-0.317-0.256-0.431s-0.232-0.197-0.375-0.252s-0.295-0.082-0.459-0.082c-0.359,0-0.654,0.12-0.885,0.36
				c-0.231,0.24-0.368,0.579-0.411,1.017H170.232z"/>
			<path fill="#FFFFFF" d="M176.93,28.204c0.008-0.223-0.004-0.412-0.033-0.568s-0.076-0.285-0.141-0.387s-0.143-0.176-0.236-0.223
				s-0.201-0.07-0.322-0.07c-0.211,0-0.43,0.087-0.654,0.261s-0.471,0.46-0.74,0.858v3.768h-1.465V25.89h1.295l0.053,0.867
				c0.098-0.152,0.207-0.289,0.33-0.41s0.26-0.226,0.41-0.313s0.318-0.155,0.502-0.202s0.385-0.07,0.604-0.07
				c0.301,0,0.566,0.052,0.799,0.155s0.428,0.257,0.586,0.46s0.275,0.458,0.352,0.765s0.109,0.661,0.098,1.063H176.93z"/>
			<path fill="#FFFFFF" d="M183.527,28.204c0.008-0.223-0.004-0.412-0.033-0.568s-0.076-0.285-0.141-0.387s-0.143-0.176-0.236-0.223
				s-0.201-0.07-0.322-0.07c-0.211,0-0.43,0.087-0.654,0.261s-0.471,0.46-0.74,0.858v3.768h-1.465V25.89h1.295l0.053,0.867
				c0.098-0.152,0.207-0.289,0.33-0.41s0.26-0.226,0.41-0.313s0.318-0.155,0.502-0.202s0.385-0.07,0.604-0.07
				c0.301,0,0.566,0.052,0.799,0.155s0.428,0.257,0.586,0.46s0.275,0.458,0.352,0.765s0.109,0.661,0.098,1.063H183.527z"/>
			<path fill="#FFFFFF" d="M189.873,31.192c-0.207,0.516-0.424,0.968-0.648,1.356s-0.471,0.713-0.74,0.973s-0.57,0.455-0.9,0.586
				s-0.699,0.196-1.109,0.196c-0.098,0-0.205-0.005-0.32-0.015s-0.232-0.024-0.354-0.044v-1.213c0.047,0.008,0.1,0.017,0.16,0.026
				s0.125,0.018,0.191,0.023s0.133,0.011,0.201,0.015s0.133,0.006,0.191,0.006c0.164,0,0.316-0.031,0.457-0.094
				s0.27-0.149,0.389-0.261s0.229-0.244,0.326-0.398s0.184-0.323,0.258-0.507l-2.361-5.953h1.594l1.236,3.375l0.369,1.09
				l0.363-1.043l1.248-3.422h1.535L189.873,31.192z"/>
			<path fill="#FFFFFF" d="M202.545,29.304c0,0.437-0.062,0.817-0.184,1.143s-0.291,0.596-0.506,0.811s-0.469,0.376-0.762,0.483
				s-0.609,0.161-0.951,0.161c-0.156,0-0.313-0.008-0.467-0.024s-0.312-0.044-0.471-0.083v2.051h-0.85V26.94h0.756l0.055,0.82
				c0.244-0.335,0.504-0.57,0.781-0.705c0.276-0.136,0.576-0.203,0.898-0.203c0.279,0,0.525,0.059,0.736,0.176
				c0.212,0.117,0.39,0.282,0.533,0.496c0.143,0.213,0.25,0.47,0.322,0.771C202.509,28.597,202.545,28.933,202.545,29.304z
				 M201.676,29.343c0-0.257-0.02-0.493-0.057-0.708s-0.097-0.398-0.178-0.552c-0.082-0.153-0.186-0.272-0.313-0.359
				c-0.127-0.086-0.279-0.129-0.455-0.129c-0.107,0-0.216,0.018-0.326,0.051c-0.111,0.035-0.227,0.092-0.345,0.172
				c-0.118,0.079-0.244,0.186-0.376,0.316c-0.132,0.133-0.272,0.296-0.422,0.491v2.378c0.156,0.065,0.32,0.116,0.492,0.154
				c0.173,0.037,0.342,0.056,0.508,0.056c0.459,0,0.819-0.155,1.08-0.466C201.545,30.436,201.676,29.968,201.676,29.343z"/>
			<path fill="#FFFFFF" d="M204.053,26.94h0.777l0.023,0.903c0.29-0.349,0.576-0.601,0.857-0.757s0.565-0.234,0.852-0.234
				c0.508,0,0.893,0.164,1.155,0.493s0.384,0.817,0.364,1.465h-0.859c0.01-0.43-0.053-0.741-0.188-0.935
				c-0.136-0.194-0.333-0.291-0.593-0.291c-0.114,0-0.229,0.021-0.345,0.061c-0.116,0.041-0.234,0.106-0.356,0.195
				c-0.122,0.09-0.252,0.205-0.389,0.345s-0.283,0.31-0.439,0.508v3.149h-0.859V26.94z"/>
			<path fill="#FFFFFF" d="M213.492,29.133c0,0.12-0.002,0.222-0.006,0.303c-0.003,0.081-0.008,0.158-0.014,0.229h-3.443
				c0,0.501,0.141,0.887,0.42,1.154c0.28,0.27,0.684,0.403,1.211,0.403c0.144,0,0.287-0.006,0.43-0.017
				c0.144-0.012,0.282-0.027,0.416-0.047c0.133-0.02,0.261-0.041,0.383-0.066c0.122-0.023,0.235-0.051,0.34-0.08v0.698
				c-0.231,0.065-0.492,0.118-0.784,0.159c-0.292,0.04-0.593,0.061-0.905,0.061c-0.42,0-0.781-0.057-1.084-0.171
				s-0.551-0.279-0.745-0.495c-0.194-0.217-0.337-0.482-0.43-0.797c-0.093-0.313-0.14-0.669-0.14-1.066
				c0-0.345,0.051-0.672,0.149-0.979c0.099-0.309,0.244-0.578,0.435-0.811c0.19-0.233,0.424-0.418,0.701-0.555
				c0.276-0.137,0.59-0.205,0.941-0.205c0.342,0,0.645,0.054,0.908,0.161s0.486,0.26,0.667,0.456
				c0.181,0.197,0.317,0.437,0.41,0.719C213.445,28.47,213.492,28.784,213.492,29.133z M212.607,29.011
				c0.01-0.218-0.011-0.418-0.063-0.598c-0.053-0.182-0.133-0.337-0.242-0.467s-0.245-0.232-0.408-0.305
				c-0.162-0.074-0.352-0.11-0.566-0.11c-0.186,0-0.354,0.036-0.508,0.107c-0.152,0.071-0.284,0.173-0.395,0.303
				c-0.111,0.13-0.201,0.286-0.27,0.469s-0.11,0.383-0.127,0.601H212.607z"/>
			<path fill="#FFFFFF" d="M218.73,30.505c0,0.173-0.029,0.327-0.088,0.464s-0.138,0.258-0.238,0.364
				c-0.102,0.105-0.219,0.195-0.352,0.271c-0.134,0.075-0.276,0.137-0.428,0.186s-0.307,0.085-0.467,0.107
				c-0.159,0.022-0.315,0.034-0.469,0.034c-0.332,0-0.637-0.015-0.915-0.044s-0.551-0.076-0.817-0.142v-0.781
				c0.286,0.081,0.57,0.144,0.854,0.186s0.565,0.063,0.846,0.063c0.406,0,0.707-0.056,0.902-0.166s0.293-0.269,0.293-0.474
				c0-0.088-0.016-0.167-0.046-0.236c-0.03-0.07-0.087-0.137-0.169-0.201c-0.081-0.063-0.207-0.129-0.378-0.197
				s-0.404-0.146-0.7-0.234c-0.222-0.065-0.426-0.139-0.613-0.223c-0.188-0.082-0.35-0.181-0.486-0.295s-0.244-0.247-0.322-0.4
				s-0.117-0.334-0.117-0.542c0-0.137,0.032-0.286,0.096-0.449s0.172-0.314,0.324-0.454c0.153-0.14,0.36-0.256,0.621-0.35
				c0.26-0.092,0.586-0.139,0.977-0.139c0.191,0,0.404,0.011,0.639,0.031c0.234,0.021,0.479,0.059,0.732,0.11v0.757
				c-0.267-0.065-0.52-0.113-0.759-0.145c-0.239-0.03-0.446-0.046-0.622-0.046c-0.212,0-0.391,0.017-0.535,0.049
				s-0.262,0.077-0.352,0.134c-0.09,0.058-0.154,0.124-0.193,0.201c-0.039,0.076-0.059,0.158-0.059,0.246s0.018,0.168,0.052,0.239
				s0.098,0.141,0.19,0.208c0.093,0.066,0.223,0.133,0.389,0.199c0.166,0.067,0.382,0.14,0.648,0.218
				c0.29,0.085,0.534,0.173,0.732,0.267c0.199,0.092,0.36,0.195,0.484,0.31c0.123,0.114,0.212,0.242,0.266,0.386
				S218.73,30.322,218.73,30.505z"/>
			<path fill="#FFFFFF" d="M224.488,29.133c0,0.12-0.002,0.222-0.006,0.303c-0.003,0.081-0.008,0.158-0.014,0.229h-3.443
				c0,0.501,0.141,0.887,0.42,1.154c0.28,0.27,0.684,0.403,1.211,0.403c0.144,0,0.287-0.006,0.43-0.017
				c0.144-0.012,0.282-0.027,0.416-0.047c0.133-0.02,0.261-0.041,0.383-0.066c0.122-0.023,0.235-0.051,0.34-0.08v0.698
				c-0.231,0.065-0.492,0.118-0.784,0.159c-0.292,0.04-0.593,0.061-0.905,0.061c-0.42,0-0.781-0.057-1.084-0.171
				s-0.551-0.279-0.745-0.495c-0.194-0.217-0.337-0.482-0.43-0.797c-0.093-0.313-0.14-0.669-0.14-1.066
				c0-0.345,0.051-0.672,0.149-0.979c0.099-0.309,0.244-0.578,0.435-0.811c0.19-0.233,0.424-0.418,0.701-0.555
				c0.276-0.137,0.59-0.205,0.941-0.205c0.342,0,0.645,0.054,0.908,0.161s0.486,0.26,0.667,0.456
				c0.181,0.197,0.317,0.437,0.41,0.719C224.441,28.47,224.488,28.784,224.488,29.133z M223.604,29.011
				c0.01-0.218-0.011-0.418-0.063-0.598c-0.053-0.182-0.133-0.337-0.242-0.467s-0.245-0.232-0.408-0.305
				c-0.162-0.074-0.352-0.11-0.566-0.11c-0.186,0-0.354,0.036-0.508,0.107c-0.152,0.071-0.284,0.173-0.395,0.303
				c-0.111,0.13-0.201,0.286-0.27,0.469s-0.11,0.383-0.127,0.601H223.604z"/>
			<path fill="#FFFFFF" d="M225.846,26.94h0.756l0.035,0.791c0.143-0.169,0.281-0.311,0.414-0.422
				c0.134-0.113,0.266-0.203,0.394-0.271s0.26-0.116,0.394-0.145c0.133-0.027,0.271-0.041,0.414-0.041
				c0.505,0,0.887,0.148,1.146,0.447c0.259,0.297,0.388,0.746,0.388,1.345v3.198h-0.85v-3.13c0-0.384-0.071-0.668-0.215-0.853
				c-0.143-0.184-0.355-0.275-0.639-0.275c-0.104,0-0.207,0.016-0.306,0.047c-0.099,0.03-0.202,0.084-0.31,0.16
				c-0.107,0.077-0.225,0.181-0.35,0.311s-0.266,0.293-0.422,0.488v3.252h-0.85V26.94z"/>
			<path fill="#FFFFFF" d="M235.293,31.774c-0.191,0.049-0.391,0.084-0.596,0.105c-0.205,0.021-0.413,0.031-0.625,0.031
				c-0.615,0-1.074-0.139-1.377-0.418c-0.303-0.277-0.453-0.705-0.453-1.281v-2.559h-1.373V26.94h1.373v-1.348l0.85-0.22v1.567
				h2.201v0.713h-2.201v2.49c0,0.352,0.094,0.614,0.28,0.789c0.187,0.174,0.463,0.261,0.827,0.261c0.156,0,0.328-0.013,0.514-0.036
				c0.186-0.025,0.379-0.063,0.58-0.115V31.774z"/>
			<path fill="#FFFFFF" d="M240.723,30.505c0,0.173-0.029,0.327-0.088,0.464s-0.138,0.258-0.238,0.364
				c-0.102,0.105-0.219,0.195-0.352,0.271c-0.134,0.075-0.276,0.137-0.428,0.186s-0.307,0.085-0.467,0.107
				c-0.159,0.022-0.315,0.034-0.469,0.034c-0.332,0-0.637-0.015-0.915-0.044s-0.551-0.076-0.817-0.142v-0.781
				c0.286,0.081,0.57,0.144,0.854,0.186s0.565,0.063,0.846,0.063c0.406,0,0.707-0.056,0.902-0.166s0.293-0.269,0.293-0.474
				c0-0.088-0.016-0.167-0.046-0.236c-0.03-0.07-0.087-0.137-0.169-0.201c-0.081-0.063-0.207-0.129-0.378-0.197
				s-0.404-0.146-0.7-0.234c-0.222-0.065-0.426-0.139-0.613-0.223c-0.188-0.082-0.35-0.181-0.486-0.295s-0.244-0.247-0.322-0.4
				s-0.117-0.334-0.117-0.542c0-0.137,0.032-0.286,0.096-0.449s0.172-0.314,0.324-0.454c0.153-0.14,0.36-0.256,0.621-0.35
				c0.26-0.092,0.586-0.139,0.977-0.139c0.191,0,0.404,0.011,0.639,0.031c0.234,0.021,0.479,0.059,0.732,0.11v0.757
				c-0.267-0.065-0.52-0.113-0.759-0.145c-0.239-0.03-0.446-0.046-0.622-0.046c-0.212,0-0.391,0.017-0.535,0.049
				s-0.262,0.077-0.352,0.134c-0.09,0.058-0.154,0.124-0.193,0.201c-0.039,0.076-0.059,0.158-0.059,0.246s0.018,0.168,0.052,0.239
				s0.098,0.141,0.19,0.208c0.093,0.066,0.223,0.133,0.389,0.199c0.166,0.067,0.382,0.14,0.648,0.218
				c0.29,0.085,0.534,0.173,0.732,0.267c0.199,0.092,0.36,0.195,0.484,0.31c0.123,0.114,0.212,0.242,0.266,0.386
				S240.723,30.322,240.723,30.505z"/>
		</g>
	</g>
	<g>
		<g>
			<path fill="#FFFFFF" d="M262.768,81.01h-2.98v2.277h2.825v0.8h-2.825v3.126h-0.978v-7.02h3.958V81.01z"/>
			<path fill="#FFFFFF" d="M269.17,84.232c0,0.132-0.002,0.243-0.005,0.332c-0.003,0.09-0.009,0.174-0.017,0.253h-3.786
				c0,0.552,0.153,0.975,0.462,1.271c0.309,0.295,0.752,0.443,1.332,0.443c0.158,0,0.314-0.007,0.473-0.02s0.31-0.029,0.457-0.051
				c0.146-0.021,0.287-0.046,0.422-0.072c0.133-0.027,0.258-0.057,0.373-0.089v0.769c-0.255,0.071-0.542,0.129-0.863,0.174
				c-0.32,0.045-0.652,0.067-0.996,0.067c-0.461,0-0.859-0.063-1.191-0.188c-0.334-0.125-0.606-0.307-0.82-0.545
				c-0.213-0.238-0.369-0.529-0.473-0.875c-0.102-0.346-0.152-0.737-0.152-1.174c0-0.38,0.055-0.738,0.164-1.077
				c0.109-0.338,0.268-0.636,0.479-0.892c0.209-0.256,0.466-0.459,0.77-0.609c0.305-0.15,0.65-0.226,1.037-0.226
				c0.376,0,0.709,0.06,0.999,0.177c0.29,0.119,0.534,0.286,0.733,0.503s0.35,0.479,0.451,0.789S269.17,83.849,269.17,84.232z
				 M268.198,84.098c0.011-0.24-0.013-0.459-0.069-0.658c-0.058-0.198-0.146-0.369-0.266-0.513c-0.121-0.144-0.27-0.255-0.449-0.336
				c-0.18-0.08-0.387-0.12-0.623-0.12c-0.204,0-0.391,0.039-0.559,0.117c-0.168,0.079-0.313,0.19-0.436,0.334
				c-0.121,0.143-0.22,0.314-0.295,0.516c-0.075,0.2-0.121,0.42-0.14,0.66H268.198z"/>
			<path fill="#FFFFFF" d="M275.271,84.42c0,0.447-0.061,0.848-0.186,1.2c-0.123,0.353-0.299,0.652-0.525,0.897
				c-0.228,0.245-0.504,0.433-0.83,0.563s-0.693,0.196-1.102,0.196c-0.318,0-0.645-0.03-0.977-0.092
				c-0.334-0.061-0.663-0.157-0.988-0.289v-7.273h0.934v2.09l-0.043,0.999c0.27-0.361,0.557-0.617,0.863-0.766
				c0.305-0.148,0.634-0.223,0.984-0.223c0.309,0,0.578,0.064,0.812,0.193s0.428,0.311,0.585,0.545
				c0.158,0.234,0.276,0.518,0.355,0.849C275.232,83.642,275.271,84.012,275.271,84.42z M274.316,84.463
				c0-0.283-0.021-0.543-0.063-0.779s-0.106-0.438-0.195-0.606c-0.09-0.168-0.205-0.3-0.344-0.395
				c-0.141-0.095-0.307-0.143-0.5-0.143c-0.118,0-0.238,0.019-0.359,0.057c-0.122,0.037-0.248,0.1-0.379,0.188
				s-0.27,0.204-0.414,0.35c-0.145,0.145-0.3,0.325-0.465,0.54v2.615c0.184,0.071,0.369,0.128,0.559,0.169
				c0.19,0.041,0.371,0.062,0.543,0.062c0.215,0,0.42-0.033,0.615-0.102s0.367-0.182,0.516-0.341s0.267-0.371,0.354-0.634
				C274.271,85.18,274.316,84.854,274.316,84.463z"/>
			<path fill="#FFFFFF" d="M287.314,87.213h-4.625v-0.838l1.815-1.805c0.298-0.294,0.539-0.548,0.726-0.763
				c0.186-0.215,0.33-0.411,0.435-0.588c0.104-0.178,0.174-0.345,0.21-0.503c0.035-0.157,0.053-0.327,0.053-0.51
				c0-0.172-0.023-0.336-0.069-0.491c-0.046-0.156-0.118-0.293-0.215-0.411s-0.222-0.211-0.376-0.279s-0.338-0.102-0.553-0.102
				c-0.298,0-0.568,0.065-0.812,0.198s-0.468,0.305-0.671,0.516l-0.516-0.618c0.265-0.279,0.57-0.503,0.916-0.671
				c0.345-0.168,0.746-0.253,1.205-0.253c0.312,0,0.596,0.047,0.852,0.141c0.256,0.093,0.477,0.227,0.663,0.402
				s0.331,0.391,0.433,0.645s0.152,0.541,0.152,0.859c0,0.269-0.035,0.518-0.107,0.746c-0.071,0.229-0.18,0.458-0.324,0.686
				s-0.328,0.463-0.549,0.706c-0.219,0.243-0.48,0.511-0.781,0.8l-1.272,1.241h3.411V87.213z"/>
			<path fill="#FFFFFF" d="M293.711,85.66h-1.197v1.553h-0.957V85.66h-3.378v-0.821l2.991-4.646h1.344v4.646h1.197V85.66z
				 M291.557,81.096l-2.443,3.743h2.443V81.096z"/>
			<path fill="#FFFFFF" d="M298.625,84.727h-3.211v-0.881h3.211V84.727z"/>
			<path fill="#FFFFFF" d="M305.457,87.213h-4.624v-0.838l1.815-1.805c0.297-0.294,0.539-0.548,0.725-0.763
				c0.187-0.215,0.332-0.411,0.436-0.588c0.104-0.178,0.174-0.345,0.209-0.503c0.036-0.157,0.055-0.327,0.055-0.51
				c0-0.172-0.023-0.336-0.07-0.491c-0.047-0.156-0.118-0.293-0.215-0.411s-0.223-0.211-0.376-0.279s-0.339-0.102-0.554-0.102
				c-0.297,0-0.566,0.065-0.811,0.198s-0.467,0.305-0.672,0.516l-0.516-0.618c0.266-0.279,0.57-0.503,0.916-0.671
				s0.748-0.253,1.206-0.253c0.312,0,0.595,0.047,0.851,0.141c0.257,0.093,0.479,0.227,0.664,0.402s0.33,0.391,0.432,0.645
				c0.104,0.254,0.154,0.541,0.154,0.859c0,0.269-0.036,0.518-0.107,0.746c-0.072,0.229-0.18,0.458-0.326,0.686
				c-0.145,0.228-0.326,0.463-0.547,0.706s-0.48,0.511-0.781,0.8l-1.273,1.241h3.41V87.213z"/>
			<path fill="#FFFFFF" d="M311.592,84.989c0,0.322-0.059,0.625-0.176,0.907c-0.115,0.283-0.281,0.529-0.496,0.739
				c-0.215,0.209-0.474,0.374-0.775,0.494c-0.303,0.12-0.639,0.18-1.008,0.18c-0.387,0-0.729-0.062-1.025-0.186
				c-0.298-0.123-0.547-0.313-0.747-0.569s-0.353-0.579-0.456-0.969c-0.104-0.391-0.156-0.853-0.156-1.387
				c0-0.357,0.023-0.705,0.07-1.041c0.046-0.337,0.123-0.654,0.23-0.951s0.25-0.569,0.43-0.816s0.402-0.459,0.668-0.637
				c0.268-0.177,0.582-0.314,0.943-0.413s0.781-0.147,1.257-0.147h0.692v0.816h-0.752c-0.418,0-0.781,0.05-1.09,0.15
				c-0.309,0.1-0.566,0.241-0.773,0.424s-0.367,0.402-0.479,0.66c-0.11,0.258-0.18,0.547-0.209,0.865l-0.021,0.221
				c0.226-0.133,0.486-0.239,0.781-0.32c0.295-0.08,0.615-0.121,0.959-0.121c0.354,0,0.665,0.053,0.932,0.156
				c0.268,0.104,0.488,0.248,0.666,0.433s0.311,0.405,0.4,0.663S311.592,84.682,311.592,84.989z M310.613,85.049
				c0-0.215-0.025-0.409-0.078-0.583c-0.051-0.174-0.133-0.32-0.244-0.44c-0.11-0.12-0.251-0.213-0.422-0.279
				c-0.17-0.066-0.373-0.1-0.609-0.1c-0.136,0-0.273,0.013-0.413,0.037c-0.14,0.025-0.276,0.061-0.411,0.105
				s-0.262,0.096-0.384,0.152c-0.122,0.058-0.233,0.119-0.333,0.184c0,0.461,0.032,0.848,0.097,1.157s0.16,0.558,0.288,0.743
				c0.127,0.187,0.283,0.319,0.469,0.398c0.187,0.078,0.401,0.117,0.645,0.117c0.205,0,0.392-0.032,0.563-0.099
				c0.17-0.066,0.316-0.164,0.439-0.293s0.221-0.285,0.291-0.47C310.578,85.495,310.613,85.285,310.613,85.049z"/>
		</g>
	</g>
</g>
</svg>
