<?xml version="1.0" encoding="utf-8"?>
<!-- Generator: Adobe Illustrator 16.0.0, SVG Export Plug-In . SVG Version: 6.00 Build 0)  -->
<!DOCTYPE svg PUBLIC "-//W3C//DTD SVG 1.1//EN" "http://www.w3.org/Graphics/SVG/1.1/DTD/svg11.dtd">
<svg version="1.1" id="Layer_1" xmlns="http://www.w3.org/2000/svg" xmlns:xlink="http://www.w3.org/1999/xlink" x="0px" y="0px"
	 width="30px" height="30px" viewBox="0 0 400 400" enable-background="new 0 0 400 400" xml:space="preserve">
<g>
	<path fill="#FFFFFF" d="M356.001,103.237c-11.48,5.091-23.815,8.532-36.764,10.079c13.215-7.922,23.364-20.466,28.145-35.414
		c-12.37,7.336-26.067,12.663-40.648,15.533c-11.675-12.44-28.312-20.213-46.724-20.213c-35.35,0-64.009,28.658-64.009,64.008
		c0,5.017,0.566,9.902,1.657,14.587c-53.199-2.67-100.365-28.153-131.936-66.88c-5.51,9.454-8.667,20.449-8.667,32.18
		c0,22.208,11.3,41.801,28.476,53.279c-10.493-0.333-20.363-3.212-28.992-8.006c-0.006,0.267-0.006,0.535-0.006,0.805
		c0,31.014,22.064,56.884,51.347,62.766c-5.371,1.462-11.026,2.247-16.864,2.247c-4.125,0-8.134-0.402-12.043-1.151
		c8.146,25.43,31.785,43.938,59.795,44.453c-21.907,17.171-49.507,27.402-79.498,27.402c-5.167,0-10.262-0.302-15.27-0.896
		c28.327,18.164,61.974,28.761,98.122,28.761c117.739,0,182.123-97.538,182.123-182.125c0-2.775-0.063-5.536-0.186-8.282
		C336.567,127.347,347.42,116.073,356.001,103.237z"/>
</g>
</svg>
