<?xml version="1.0" encoding="utf-8"?>
<!-- Generator: Adobe Illustrator 16.0.0, SVG Export Plug-In . SVG Version: 6.00 Build 0)  -->
<!DOCTYPE svg PUBLIC "-//W3C//DTD SVG 1.1//EN" "http://www.w3.org/Graphics/SVG/1.1/DTD/svg11.dtd">
<svg version="1.1" id="Layer_1" xmlns="http://www.w3.org/2000/svg" xmlns:xlink="http://www.w3.org/1999/xlink" x="0px" y="0px"
	 width="30px" height="30px" viewBox="0 0 400 400" enable-background="new 0 0 400 400" xml:space="preserve">
<g>
	<path fill="#FFFFFF" d="M373.708,170.887c-0.127-6.987-0.68-15.82-1.646-26.492c-0.974-10.678-2.364-20.221-4.175-28.629
		c-2.07-9.445-6.567-17.404-13.488-23.873c-6.922-6.472-14.977-10.222-24.167-11.259c-28.727-3.233-72.137-4.851-130.231-4.851
		c-58.095,0-101.506,1.618-130.232,4.851c-9.188,1.036-17.211,4.788-24.067,11.259c-6.858,6.467-11.322,14.426-13.394,23.873
		c-1.938,8.411-3.396,17.954-4.366,28.629c-0.969,10.672-1.52,19.502-1.648,26.492c-0.131,6.987-0.195,16.69-0.195,29.113
		c0,12.421,0.064,22.127,0.196,29.113c0.128,6.991,0.679,15.819,1.647,26.491c0.971,10.678,2.362,20.221,4.174,28.631
		c2.07,9.447,6.565,17.405,13.488,23.872c6.924,6.469,14.98,10.221,24.166,11.258c28.725,3.235,72.133,4.852,130.231,4.852
		c58.1,0,101.504-1.616,130.231-4.852c9.19-1.036,17.21-4.789,24.069-11.258c6.858-6.469,11.321-14.429,13.39-23.872
		c1.94-8.41,3.397-17.953,4.371-28.631c0.967-10.67,1.517-19.505,1.646-26.491c0.129-6.985,0.194-16.691,0.194-29.113
		C373.902,187.578,373.839,177.874,373.708,170.887z M268.709,210.481l-99.373,62.105c-1.812,1.295-4.014,1.942-6.601,1.942
		c-1.939,0-3.945-0.521-6.015-1.555c-4.269-2.328-6.402-5.952-6.402-10.868V137.895c0-4.915,2.134-8.539,6.402-10.868
		c4.401-2.332,8.604-2.202,12.616,0.388l99.373,62.106c3.881,2.196,5.82,5.692,5.82,10.479
		C274.529,204.787,272.587,208.284,268.709,210.481z"/>
</g>
</svg>
